<?xml version="1.0" encoding="utf-8"?>
<svg version="1.1" xmlns="http://www.w3.org/2000/svg" xmlns:xlink="http://www.w3.org/1999/xlink" x="0px" y="0px"
	 viewBox="0 0 499.3 120.4" style="enable-background:new 0 0 499.3 120.4;">
<style type="text/css">
	.st0{fill:#ffffff;}
	.st1{fill:none;}
	.st2{fill:none;stroke:#ffffff;}
</style>
<g transform="translate(-101.287 -70)">
	<path class="st0" d="M122,165.1c1.2,0,2.4-0.1,3.5-0.3c0.9-0.1,1.8-0.3,2.7-0.6v5.3c-1.1,0.4-2.2,0.7-3.3,0.9
		c-1.3,0.2-2.6,0.3-3.9,0.4c-8.8,0-13.2-4.6-13.2-13.9v-27.1h-6.5v-3.3l6.5-2.9l2.9-9.7h4v10.5h13.2v5.4h-13.2v26.8
		c-0.2,2.3,0.5,4.5,2,6.3C118,164.4,120,165.2,122,165.1z M156.5,170.8c-6.7,0-12-2-15.9-6.1s-5.8-9.8-5.8-17.1
		c0-7.3,1.8-13.2,5.4-17.5c3.6-4.3,8.5-6.5,14.5-6.5c5.7,0,10.2,1.9,13.5,5.6c3.3,3.7,5,8.7,5,14.8v4.4h-31.3
		c0.1,5.3,1.5,9.4,4,12.2c2.6,2.8,6.2,4.2,10.8,4.2c5,0,9.9-1.1,14.5-3.1v6.1c-2.2,1-4.5,1.7-6.9,2.3
		C161.8,170.6,159.2,170.9,156.5,170.8z M154.7,129.5c-3.3-0.1-6.5,1.2-8.7,3.6c-2.2,2.4-3.5,5.7-3.8,9.9h23.8c0-4.3-1-7.7-2.9-10
		C161,130.6,158.3,129.5,154.7,129.5z M205.8,123.7c1.8,0,3.6,0.1,5.4,0.5l-1,6.4c-1.6-0.4-3.3-0.6-5-0.6c-3.7,0-7.1,1.6-9.4,4.5
		c-2.7,3.1-4.1,7.1-3.9,11.2V170H185v-45.5h5.7l0.8,8.4h0.3c1.5-2.7,3.6-5.1,6.1-6.8C200.2,124.5,203,123.7,205.8,123.7z M277.7,170
		v-29.6c0-3.6-0.8-6.3-2.3-8.2c-1.5-1.8-4-2.7-7.2-2.7c-4.3,0-7.5,1.2-9.5,3.7c-2,2.5-3.1,6.3-3.1,11.4V170h-6.9v-29.6
		c0-3.6-0.8-6.3-2.3-8.2c-1.5-1.8-4-2.7-7.3-2.7c-4.3,0-7.5,1.3-9.5,3.9c-2,2.6-3,6.8-3,12.7V170h-6.9v-45.5h5.6l1.1,6.2h0.3
		c1.3-2.2,3.2-4,5.5-5.2c2.5-1.3,5.2-1.9,7.9-1.9c7.1,0,11.8,2.6,13.9,7.7h0.3c1.4-2.4,3.4-4.4,5.9-5.6c2.7-1.4,5.7-2.1,8.8-2.1
		c5.1,0,9,1.3,11.6,4c2.6,2.6,3.8,6.9,3.8,12.7V170H277.7z M305.7,170h-6.9v-45.5h6.9V170z M298.2,112.2c-0.1-1.3,0.3-2.5,1.2-3.5
		c0.8-0.7,1.8-1.1,2.9-1.1c1.1,0,2.1,0.4,2.9,1.1c0.9,0.9,1.3,2.2,1.2,3.4c0.1,1.3-0.3,2.5-1.2,3.5c-0.8,0.7-1.8,1.2-2.9,1.1
		c-1.1,0-2.1-0.4-2.9-1.1C298.5,114.7,298.1,113.5,298.2,112.2z M351.4,170v-29.4c0-3.7-0.8-6.5-2.5-8.3c-1.7-1.8-4.3-2.7-7.9-2.7
		c-4.8,0-8.2,1.3-10.5,3.9c-2.2,2.6-3.3,6.8-3.3,12.7V170h-6.9v-45.5h5.6l1.1,6.2h0.3c1.4-2.3,3.5-4.1,5.9-5.2
		c2.7-1.3,5.6-1.9,8.5-1.8c5.5,0,9.6,1.3,12.4,4c2.8,2.6,4.1,6.9,4.1,12.7V170H351.4z M411.7,147.2c0,7.4-1.9,13.2-5.6,17.4
		c-3.7,4.2-8.9,6.2-15.5,6.2c-3.8,0.1-7.6-0.9-10.8-2.9c-3.2-2-5.7-4.8-7.3-8.2c-1.8-3.9-2.7-8.2-2.6-12.5c0-7.4,1.9-13.2,5.6-17.3
		c3.7-4.1,8.9-6.2,15.4-6.2c6.4,0,11.4,2.1,15.2,6.3C409.8,134.3,411.7,140,411.7,147.2z M377,147.2c0,5.8,1.2,10.2,3.5,13.3
		c2.3,3,5.7,4.6,10.3,4.6s7.9-1.5,10.3-4.5s3.5-7.5,3.5-13.3c0-5.8-1.2-10.2-3.5-13.2s-5.8-4.5-10.4-4.5c-4.5,0-7.9,1.5-10.2,4.4
		S377,141.4,377,147.2L377,147.2z M430.7,170h-6.9v-64.6h6.9V170z M484.5,147.2c0,7.4-1.9,13.2-5.6,17.4c-3.7,4.2-8.9,6.2-15.5,6.2
		c-3.8,0.1-7.6-0.9-10.8-2.9c-3.2-2-5.7-4.8-7.3-8.2c-1.8-3.9-2.7-8.2-2.6-12.5c0-7.4,1.9-13.2,5.6-17.3c3.7-4.1,8.9-6.2,15.4-6.2
		c6.4,0,11.4,2.1,15.2,6.3C482.7,134.3,484.5,140,484.5,147.2z M449.9,147.2c0,5.8,1.2,10.2,3.5,13.3c2.3,3,5.7,4.6,10.3,4.6
		s7.9-1.5,10.3-4.5c2.3-3,3.5-7.5,3.5-13.3c0-5.8-1.2-10.2-3.5-13.2c-2.3-3-5.8-4.5-10.4-4.5c-4.5,0-7.9,1.5-10.2,4.4
		C451,136.9,449.9,141.4,449.9,147.2z M533.8,124.5v4.4l-8.4,1c0.9,1.2,1.6,2.4,2.1,3.8c0.6,1.7,0.9,3.5,0.9,5.3
		c0.2,4.1-1.5,8-4.6,10.7c-3,2.7-7.2,4-12.5,4c-1.3,0-2.6-0.1-3.8-0.3c-2.9,1.5-4.4,3.5-4.4,5.9c-0.1,1.1,0.5,2.2,1.5,2.8
		c1.7,0.7,3.5,1,5.3,0.9h8.1c4.9,0,8.7,1,11.4,3.1s4,5.1,4,9c0.2,4.7-2.1,9.1-6.1,11.5c-4,2.6-9.9,4-17.7,4
		c-5.9,0-10.5-1.1-13.8-3.3c-3.1-2.1-5-5.6-4.8-9.4c0-2.6,0.9-5.2,2.7-7.2c2-2.1,4.6-3.6,7.5-4.1c-1.2-0.5-2.2-1.4-2.9-2.4
		c-0.8-1.1-1.2-2.5-1.2-3.9c0-1.6,0.4-3.1,1.3-4.4c1.1-1.5,2.6-2.7,4.2-3.6c-2.4-1-4.4-2.7-5.7-4.9c-1.5-2.4-2.3-5.2-2.2-8
		c0-5,1.5-8.8,4.5-11.5c3-2.7,7.2-4,12.7-4c2.2,0,4.3,0.3,6.4,0.8L533.8,124.5z M497.6,177.6c-0.1,2.3,1.1,4.5,3.1,5.6
		c2.1,1.3,5,1.9,8.9,1.9c5.8,0,10.1-0.9,12.8-2.6c2.6-1.4,4.2-4.1,4.2-7c0-2.5-0.8-4.2-2.3-5.1c-1.5-1-4.4-1.4-8.6-1.4h-8.3
		c-3.1,0-5.6,0.7-7.3,2.2C498.4,172.8,497.4,175.2,497.6,177.6z M501.3,139.1c0,3.2,0.9,5.6,2.7,7.2s4.3,2.4,7.5,2.4
		c6.7,0,10.1-3.3,10.1-9.8c0-6.8-3.4-10.3-10.2-10.3c-3.2,0-5.7,0.9-7.5,2.6C502.2,133.1,501.3,135.7,501.3,139.1z M550.1,170h-6.9
		v-45.5h6.9V170z M542.6,112.2c-0.1-1.3,0.3-2.5,1.2-3.5c0.8-0.7,1.8-1.1,2.9-1.1c1.1,0,2.1,0.4,2.9,1.1c0.9,0.9,1.3,2.2,1.2,3.4
		c0.1,1.3-0.3,2.5-1.2,3.5c-0.8,0.7-1.8,1.2-2.9,1.1c-1.1,0-2.1-0.4-2.9-1.1C542.9,114.7,542.5,113.5,542.6,112.2z M583.9,170.8
		c-6.7,0-12-2-15.9-6.1s-5.8-9.8-5.8-17.1c0-7.3,1.8-13.2,5.4-17.5c3.6-4.3,8.5-6.5,14.5-6.5c5.7,0,10.2,1.9,13.5,5.6
		c3.3,3.7,5,8.7,5,14.8v4.4h-31.3c0.1,5.3,1.5,9.4,4,12.2s6.2,4.2,10.8,4.2c5,0,9.9-1.1,14.5-3.1v6.1c-2.2,1-4.5,1.7-6.9,2.3
		C589.2,170.6,586.5,170.9,583.9,170.8z M582,129.5c-3.3-0.1-6.5,1.2-8.7,3.6c-2.2,2.4-3.5,5.7-3.8,9.9h23.8c0-4.3-1-7.7-2.9-10
		S585.6,129.5,582,129.5z"/>
	<g transform="translate(0 1.422)">
		<g transform="translate(106 69)">
			<path class="st0" d="M96.9,24.9c0,0.1-0.1,0.2-0.2,0.3c-0.1,0.1-0.2,0.2-0.3,0.2c-0.2,0.1-0.4,0.1-0.5,0.1h-1.7
				c-0.2,0-0.4,0-0.5,0c-0.1,0-0.2,0-0.3-0.1l-0.2-0.1c-0.1,0-0.1-0.1-0.2-0.2c0-0.1-0.1-0.1-0.1-0.2l-4.2-12.7
				c-0.1-0.2-0.1-0.4-0.2-0.6c0-0.2,0-0.3,0.1-0.3c0.1-0.1,0.3-0.1,0.5-0.2c0.2,0,0.5,0,0.9,0c0.3,0,0.5,0,0.8,0
				c0.1,0,0.3,0,0.4,0.1c0.1,0,0.2,0.1,0.2,0.2c0,0.1,0.1,0.2,0.1,0.3l3.5,11l0,0l3.4-11c0-0.1,0.1-0.2,0.1-0.3
				c0-0.1,0.1-0.2,0.2-0.2c0.1-0.1,0.3-0.1,0.5-0.1c0.2,0,0.5,0,0.8,0c0.3,0,0.5,0,0.8,0c0.1,0,0.3,0.1,0.4,0.2
				c0.1,0.1,0.1,0.2,0.1,0.3c0,0.2-0.1,0.3-0.2,0.6L96.9,24.9z"/>
			<path class="st0" d="M110.9,19.9c0,0.3-0.1,0.5-0.2,0.7c-0.2,0.2-0.4,0.2-0.6,0.2h-6c0,0.4,0,0.8,0.2,1.2
				c0.1,0.3,0.3,0.6,0.5,0.9c0.2,0.2,0.5,0.4,0.8,0.5c0.4,0.1,0.8,0.2,1.2,0.2c0.4,0,0.9,0,1.3-0.1c0.4-0.1,0.7-0.2,1-0.2
				c0.2-0.1,0.4-0.1,0.7-0.2c0.1-0.1,0.3-0.1,0.4-0.1c0.1,0,0.1,0,0.2,0c0,0,0.1,0.1,0.1,0.2c0,0.1,0.1,0.2,0.1,0.3v0.9
				c0,0.1,0,0.2,0,0.3c0,0.1,0,0.1-0.1,0.2c0,0-0.1,0.1-0.1,0.2c-0.1,0.1-0.2,0.1-0.4,0.2c-0.3,0.1-0.5,0.2-0.8,0.3
				c-0.3,0.1-0.7,0.2-1.1,0.2c-0.4,0.1-0.9,0.1-1.4,0.1c-0.8,0-1.6-0.1-2.3-0.3c-0.6-0.2-1.2-0.5-1.7-1c-0.5-0.5-0.8-1.1-1-1.7
				c-0.2-0.8-0.3-1.6-0.3-2.4c0-0.8,0.1-1.6,0.3-2.4c0.2-0.7,0.5-1.3,1-1.8c0.4-0.5,1-0.9,1.6-1.1c0.7-0.3,1.4-0.4,2.1-0.4
				c0.7,0,1.4,0.1,2.1,0.3c0.6,0.2,1,0.6,1.4,1c0.4,0.4,0.7,1,0.8,1.5c0.2,0.6,0.3,1.3,0.3,1.9L110.9,19.9L110.9,19.9z M108.2,19.3
				c0.1-0.7-0.1-1.3-0.5-1.9c-0.4-0.5-1-0.7-1.5-0.7c-0.3,0-0.6,0.1-0.9,0.2c-0.3,0.1-0.5,0.3-0.7,0.5c-0.2,0.2-0.3,0.5-0.4,0.8
				c-0.1,0.3-0.1,0.6-0.2,1L108.2,19.3z"/>
			<path class="st0" d="M119.7,16.3c0,0.2,0,0.4,0,0.7c0,0.1,0,0.3-0.1,0.4c0,0.1-0.1,0.1-0.1,0.2c-0.1,0-0.1,0-0.2,0
				c-0.1,0-0.1,0-0.2,0c-0.1,0-0.2,0-0.3-0.1s-0.2,0-0.3-0.1c-0.1,0-0.3,0-0.4,0c-0.2,0-0.3,0-0.5,0.1c-0.2,0.1-0.4,0.2-0.5,0.3
				c-0.2,0.1-0.4,0.3-0.6,0.5c-0.2,0.3-0.4,0.5-0.6,0.8v6.1c0,0.1,0,0.1-0.1,0.2c-0.1,0.1-0.1,0.1-0.2,0.2c-0.1,0-0.3,0.1-0.4,0.1
				c-0.2,0-0.4,0-0.6,0c-0.2,0-0.4,0-0.6,0c-0.1,0-0.3,0-0.4-0.1c-0.1,0-0.2-0.1-0.2-0.2c0-0.1-0.1-0.1-0.1-0.2v-9.8
				c0-0.1,0-0.1,0-0.2c0.1-0.1,0.1-0.1,0.2-0.2c0.1-0.1,0.2-0.1,0.4-0.1c0.2,0,0.3,0,0.6,0c0.2,0,0.4,0,0.6,0c0.1,0,0.2,0,0.3,0.1
				c0.1,0,0.1,0.1,0.2,0.2c0,0.1,0,0.1,0,0.2v1.2c0.2-0.3,0.5-0.6,0.7-0.9c0.2-0.2,0.4-0.4,0.6-0.6c0.2-0.1,0.4-0.2,0.6-0.3
				c0.2-0.1,0.4-0.1,0.6-0.1h0.6c0.1,0,0.3,0,0.4,0c0.1,0,0.3,0,0.3,0.1c0.1,0,0.1,0.1,0.2,0.1c0,0,0.1,0.1,0.1,0.1
				c0,0.1,0,0.1,0,0.2c0,0.1,0,0.2,0,0.3L119.7,16.3z"/>
			<path class="st0" d="M131,20.1c0,0.8-0.1,1.6-0.3,2.4c-0.2,0.6-0.4,1.2-0.8,1.8c-0.3,0.5-0.8,0.9-1.3,1.1
				c-0.6,0.3-1.2,0.4-1.8,0.4c-0.3,0-0.6,0-0.9-0.1c-0.3-0.1-0.6-0.2-0.8-0.3c-0.3-0.2-0.5-0.3-0.8-0.5c-0.3-0.2-0.5-0.5-0.8-0.8
				v1.1c0,0.1,0,0.1-0.1,0.2c-0.1,0.1-0.1,0.1-0.2,0.1c-0.1,0.1-0.2,0.1-0.4,0.1c-0.1,0-0.3,0-0.6,0c-0.2,0-0.4,0-0.6,0
				c-0.1,0-0.2,0-0.3-0.1c-0.1,0-0.1-0.1-0.2-0.1c0-0.1,0-0.1,0-0.2V10.6c0-0.1,0-0.1,0.1-0.2c0.1-0.1,0.1-0.1,0.2-0.1
				c0.1,0,0.3-0.1,0.4-0.1c0.2,0,0.4,0,0.6,0c0.2,0,0.4,0,0.6,0c0.2,0,0.3,0,0.4,0.1c0.1,0,0.2,0.1,0.2,0.1c0,0.1,0.1,0.1,0.1,0.2
				v5.4c0.2-0.2,0.5-0.5,0.7-0.7c0.2-0.2,0.5-0.3,0.7-0.4c0.2-0.1,0.5-0.2,0.8-0.2c0.3,0,0.6-0.1,0.8-0.1c0.6,0,1.3,0.1,1.9,0.4
				c0.5,0.3,0.9,0.7,1.2,1.2c0.3,0.5,0.6,1.1,0.7,1.7C130.9,18.7,131,19.4,131,20.1z M128.1,20.3c0-0.4,0-0.8-0.1-1.2
				c-0.1-0.4-0.2-0.7-0.3-1c-0.1-0.3-0.4-0.5-0.6-0.7c-0.3-0.2-0.6-0.3-0.9-0.3c-0.2,0-0.4,0-0.5,0.1c-0.2,0.1-0.4,0.1-0.5,0.3
				c-0.2,0.1-0.4,0.3-0.6,0.5c-0.2,0.2-0.4,0.5-0.6,0.7v3.3c0.3,0.4,0.7,0.8,1.1,1.2c0.3,0.3,0.7,0.4,1.1,0.4c0.3,0,0.7-0.1,0.9-0.3
				c0.3-0.2,0.5-0.4,0.6-0.7c0.2-0.3,0.3-0.7,0.3-1C128.1,21.1,128.1,20.7,128.1,20.3L128.1,20.3z"/>
			<path class="st0" d="M142.8,25.2c0,0.1,0,0.1,0,0.2c-0.1,0.1-0.1,0.1-0.2,0.2c-0.1,0-0.2,0.1-0.3,0.1
				c-0.1,0-0.3,0-0.6,0c-0.2,0-0.4,0-0.6,0c-0.1,0-0.2,0-0.3-0.1c-0.1,0-0.1-0.1-0.2-0.2c0-0.1,0-0.1,0-0.2v-1.1
				c-0.5,0.5-1,1-1.6,1.3c-0.5,0.3-1.1,0.4-1.7,0.4c-0.6,0-1.2-0.1-1.7-0.3c-0.4-0.2-0.8-0.5-1.1-0.9c-0.3-0.4-0.5-0.8-0.6-1.3
				c-0.1-0.6-0.2-1.2-0.2-1.9v-6.1c0-0.1,0-0.1,0.1-0.2c0.1-0.1,0.1-0.1,0.2-0.2c0.1,0,0.3-0.1,0.4-0.1c0.2,0,0.4,0,0.6,0
				c0.2,0,0.4,0,0.6,0c0.1,0,0.3,0,0.4,0.1c0.1,0,0.2,0.1,0.2,0.2c0,0.1,0.1,0.1,0.1,0.2v5.6c0,0.4,0,0.8,0.1,1.2
				c0.1,0.5,0.4,0.9,0.8,1.1c0.2,0.1,0.5,0.2,0.7,0.2c0.4,0,0.8-0.1,1.1-0.4c0.4-0.3,0.8-0.7,1.1-1.1v-6.6c0,0,0-0.2,0-0.2
				c0.1-0.1,0.1-0.1,0.2-0.2c0.1-0.1,0.3-0.1,0.4-0.1c0.2,0,0.4,0,0.7,0c0.2,0,0.4,0,0.7,0c0.1,0,0.3,0,0.4,0.1
				c0.1,0,0.2,0.1,0.2,0.2c0,0-0.3,0.2-0.3,0.2L142.8,25.2L142.8,25.2z"/>
			<path class="st0" d="M155.2,25.2c0,0.1,0,0.2-0.1,0.2c-0.1,0.1-0.2,0.1-0.3,0.2c-0.1,0.1-0.3,0.1-0.5,0.1
				c-0.2,0-0.4,0-0.7,0c-0.3,0-0.5,0-0.8,0c-0.2,0-0.3,0-0.5-0.1c-0.1,0-0.2-0.1-0.3-0.2c0-0.1-0.1-0.1-0.1-0.2v-5.6
				c0-0.4,0-0.8-0.1-1.1c-0.1-0.3-0.2-0.5-0.3-0.7c-0.1-0.2-0.3-0.4-0.5-0.5c-0.2-0.1-0.5-0.2-0.7-0.2c-0.4,0-0.8,0.1-1.1,0.4
				c-0.4,0.3-0.8,0.7-1.1,1.1v6.6c0,0.1,0,0.1-0.1,0.2c-0.1,0.1-0.1,0.1-0.2,0.2c-0.1,0-0.3,0.1-0.4,0.1c-0.2,0-0.4,0-0.6,0
				c-0.2,0-0.4,0-0.6,0c-0.1,0-0.3,0-0.4-0.1c-0.1,0-0.2-0.1-0.2-0.2c0-0.1-0.1-0.1-0.1-0.2v-9.9c0-0.1,0-0.1,0-0.2
				c0.1-0.1,0.1-0.1,0.2-0.2c0.1-0.1,0.2-0.1,0.4-0.1c0.2,0,0.3,0,0.6,0c0.2,0,0.4,0,0.6,0c0.1,0,0.2,0,0.3,0.1
				c0.1,0,0.1,0.1,0.2,0.2c0,0.1,0,0.1,0,0.2v1.1c0.5-0.5,1-1,1.6-1.3c0.5-0.3,1.1-0.4,1.7-0.4c0.6,0,1.1,0.1,1.7,0.3
				c0.4,0.2,0.8,0.5,1.1,0.9c0.3,0.4,0.5,0.8,0.6,1.3c0.1,0.6,0.2,1.2,0.2,1.8L155.2,25.2L155.2,25.2z"/>
			<path class="st0" d="M167.1,25.2c0,0.1,0,0.1,0,0.2c-0.1,0.1-0.1,0.1-0.2,0.2c-0.1,0.1-0.2,0.1-0.3,0.1
				c-0.2,0-0.3,0-0.5,0c-0.2,0-0.4,0-0.6,0c-0.1,0-0.2,0-0.3-0.1c-0.1,0-0.1-0.1-0.2-0.2c0-0.1-0.1-0.1-0.1-0.2v-1.1
				c-0.5,0.5-1,0.9-1.6,1.3c-0.6,0.3-1.2,0.5-1.9,0.5c-0.7,0-1.3-0.1-1.9-0.4c-0.5-0.3-0.9-0.7-1.3-1.2c-0.3-0.5-0.6-1.1-0.7-1.7
				c-0.1-0.7-0.2-1.4-0.2-2.1c0-0.8,0.1-1.6,0.3-2.4c0.2-0.6,0.4-1.2,0.8-1.8c0.3-0.5,0.8-0.9,1.4-1.1c0.6-0.3,1.2-0.4,1.9-0.4
				c0.5,0,1,0.1,1.5,0.3c0.5,0.3,1,0.6,1.4,1v-5.5c0,0-0.1-0.2-0.1-0.2c0.1-0.1,0.1-0.1,0.2-0.2c0.1-0.1,0.3-0.1,0.4-0.1
				c0.2,0,0.4,0,0.7,0c0.2,0,0.4,0,0.7,0c0.2,0,0.3,0,0.4,0.1c0.1,0,0.2,0.1,0.2,0.2c0,0.1-0.3,0.2-0.3,0.2L167.1,25.2L167.1,25.2z
				 M164.4,18.6c-0.3-0.4-0.7-0.8-1.2-1.2c-0.3-0.3-0.7-0.4-1.2-0.4c-0.3,0-0.7,0.1-0.9,0.3c-0.3,0.2-0.5,0.4-0.6,0.7
				c-0.2,0.3-0.3,0.7-0.3,1c-0.1,0.4-0.1,0.8-0.1,1.2c0,0.4,0,0.8,0.1,1.2c0.1,0.4,0.2,0.7,0.3,1c0.1,0.3,0.4,0.5,0.6,0.7
				c0.3,0.2,0.6,0.3,1,0.3c0.2,0,0.4,0,0.5-0.1c0.2-0.1,0.4-0.1,0.5-0.3c0.2-0.1,0.4-0.3,0.6-0.5c0.2-0.2,0.4-0.5,0.7-0.7
				L164.4,18.6z"/>
			<path class="st0" d="M176.6,24.3c0,0.2,0,0.4,0,0.6c0,0.1,0,0.2-0.1,0.4c0,0.1-0.1,0.2-0.2,0.2c-0.1,0-0.1,0-0.2,0
				h-6.5c-0.2,0-0.3-0.1-0.5-0.2c-0.1-0.2-0.2-0.4-0.2-0.7v-0.3c0-0.1,0-0.2,0.1-0.3c0-0.1,0.1-0.2,0.1-0.3c0-0.1,0.1-0.3,0.2-0.4
				l3.7-5.9h-3.5c-0.2,0-0.3-0.1-0.3-0.3c-0.1-0.3-0.1-0.6-0.1-0.9c0-0.2,0-0.4,0-0.6c0-0.1,0-0.2,0.1-0.4c0-0.1,0.1-0.2,0.2-0.2
				c0.1,0,0.1,0,0.2,0h6.1c0.1,0,0.2,0,0.3,0c0.1,0,0.1,0.1,0.2,0.1l0.1,0.2c0,0.1,0,0.3,0,0.4v-0.2c0,0.1,0,0.3,0,0.4
				c0,0.1,0,0.2-0.1,0.3c0,0.1-0.1,0.2-0.1,0.3c0,0.1-0.1,0.3-0.2,0.4l-3.7,6.1h3.9c0.1,0,0.1,0,0.2,0c0.1,0,0.1,0.1,0.2,0.2
				c0.1,0.1,0.1,0.2,0.1,0.4C176.6,23.9,176.6,24.1,176.6,24.3z"/>
			<path class="st0" d="M187.7,19.9c0,0.3-0.1,0.5-0.2,0.7c-0.2,0.2-0.4,0.2-0.6,0.2h-6c0,0.4,0,0.8,0.2,1.2
				c0.1,0.3,0.3,0.6,0.5,0.9c0.2,0.2,0.5,0.4,0.8,0.5c0.4,0.1,0.8,0.2,1.2,0.2c0.4,0,0.9,0,1.3-0.1c0.4-0.1,0.7-0.2,1-0.2
				c0.2-0.1,0.4-0.1,0.7-0.2c0.1-0.1,0.3-0.1,0.4-0.1c0.1,0,0.1,0,0.2,0c0,0,0.1,0.1,0.1,0.2c0,0.1,0.1,0.2,0.1,0.3v0.9
				c0,0.1,0,0.2,0,0.3c0,0.1,0,0.1-0.1,0.2c0,0-0.1,0.1-0.1,0.2c-0.1,0.1-0.2,0.1-0.4,0.2c-0.3,0.1-0.5,0.2-0.8,0.3
				c-0.3,0.1-0.7,0.2-1.1,0.2c-0.4,0.1-0.9,0.1-1.4,0.1c-0.8,0-1.6-0.1-2.3-0.3c-0.6-0.2-1.2-0.5-1.7-1c-0.5-0.5-0.8-1.1-1-1.7
				c-0.2-0.8-0.3-1.6-0.3-2.4c0-0.8,0.1-1.6,0.3-2.4c0.2-0.7,0.5-1.3,1-1.8c0.4-0.5,1-0.9,1.6-1.1c0.7-0.3,1.4-0.4,2.1-0.4
				c0.7,0,1.4,0.1,2.1,0.3c0.6,0.2,1,0.6,1.4,1c0.4,0.4,0.7,1,0.8,1.5c0.2,0.6,0.3,1.3,0.3,1.9L187.7,19.9L187.7,19.9z M184.8,19.3
				c0.1-0.7-0.1-1.3-0.5-1.9c-0.4-0.5-1-0.7-1.5-0.7c-0.3,0-0.6,0.1-0.9,0.2c-0.3,0.1-0.5,0.3-0.7,0.5c-0.2,0.2-0.3,0.5-0.4,0.8
				c-0.1,0.3-0.1,0.6-0.2,1L184.8,19.3z"/>
			<path class="st0" d="M199.6,25.2c0,0.1,0,0.2-0.1,0.2c-0.1,0.1-0.2,0.1-0.3,0.2c-0.1,0.1-0.3,0.1-0.5,0.1
				c-0.2,0-0.4,0-0.7,0c-0.3,0-0.5,0-0.8,0c-0.2,0-0.3,0-0.5-0.1c-0.1,0-0.2-0.1-0.3-0.2c0-0.1-0.1-0.1-0.1-0.2v-5.6
				c0-0.4,0-0.8-0.1-1.1c-0.1-0.3-0.2-0.5-0.3-0.7c-0.1-0.2-0.3-0.4-0.5-0.5c-0.2-0.1-0.5-0.2-0.7-0.2c-0.4,0-0.8,0.1-1.1,0.4
				c-0.4,0.3-0.8,0.7-1.1,1.1v6.6c0,0.1,0,0.1-0.1,0.2c-0.1,0.1-0.1,0.1-0.2,0.2c-0.1,0-0.3,0.1-0.4,0.1c-0.2,0-0.4,0-0.6,0
				c-0.2,0-0.4,0-0.6,0c-0.1,0-0.3,0-0.4-0.1c-0.1,0-0.2-0.1-0.2-0.2c0-0.1-0.1-0.1-0.1-0.2v-9.9c0-0.1,0-0.1,0-0.2
				c0.1-0.1,0.1-0.1,0.2-0.2c0.1-0.1,0.2-0.1,0.4-0.1c0.2,0,0.3,0,0.6,0c0.2,0,0.4,0,0.6,0c0.1,0,0.2,0,0.3,0.1
				c0.1,0,0.1,0.1,0.2,0.2c0,0.1,0,0.1,0,0.2v1.1c0.5-0.5,1-1,1.6-1.3c0.5-0.3,1.1-0.4,1.7-0.4c0.6,0,1.1,0.1,1.7,0.3
				c0.4,0.2,0.8,0.5,1.1,0.9c0.3,0.4,0.5,0.8,0.6,1.3c0.1,0.6,0.2,1.2,0.2,1.8L199.6,25.2L199.6,25.2z"/>
			<path class="st0" d="M207.4,24.6c0,0.3,0,0.5-0.1,0.8c0,0.2-0.1,0.3-0.1,0.4c-0.1,0.1-0.2,0.2-0.3,0.2
				c-0.1,0.1-0.3,0.1-0.4,0.2c-0.2,0-0.4,0.1-0.5,0.1c-0.2,0-0.4,0-0.6,0c-0.5,0-0.9-0.1-1.4-0.2c-0.4-0.1-0.7-0.4-0.9-0.7
				c-0.3-0.3-0.5-0.7-0.5-1.1c-0.1-0.5-0.2-1.1-0.2-1.6v-5.2h-1.1c-0.1,0-0.2-0.1-0.3-0.3c-0.1-0.5-0.1-1-0.1-1.4
				c0-0.1,0-0.2,0.1-0.4c0-0.1,0.1-0.2,0.1-0.2c0,0,0.1,0,0.2,0h1.1v-2.3c0-0.1,0-0.1,0.1-0.2c0-0.1,0.1-0.1,0.2-0.2
				c0.1-0.1,0.3-0.1,0.4-0.1c0.2,0,0.4,0,0.6,0c0.2,0,0.4,0,0.7,0c0.1,0,0.3,0,0.4,0.1c0.1,0,0.2,0.1,0.2,0.2c0,0.1,0.1,0.1,0.1,0.2
				v2.3h2c0.1,0,0.1,0,0.2,0c0.1,0.1,0.1,0.1,0.1,0.2c0,0.1,0.1,0.2,0.1,0.4c0,0.2,0,0.3,0,0.6c0,0.3,0,0.6-0.1,0.9
				c-0.1,0.2-0.2,0.3-0.3,0.3h-2v4.8c0,0.4,0.1,0.9,0.3,1.2c0.2,0.3,0.5,0.4,0.8,0.4c0.1,0,0.2,0,0.4,0c0.1,0,0.2,0,0.3-0.1
				c0.1,0,0.1-0.1,0.2-0.1c0,0,0.1,0,0.1,0c0,0,0.1,0,0.1,0c0,0,0.1,0.1,0.1,0.2c0,0.1,0,0.2,0.1,0.3
				C207.4,24.3,207.4,24.5,207.4,24.6z"/>
			<path class="st0" d="M215.8,16.3c0,0.2,0,0.4,0,0.7c0,0.1,0,0.3-0.1,0.4c0,0.1-0.1,0.1-0.1,0.2c-0.1,0-0.1,0-0.2,0
				c-0.1,0-0.1,0-0.2,0c-0.1,0-0.2,0-0.2-0.1s-0.2,0-0.3-0.1c-0.1,0-0.2,0-0.3,0c-0.2,0-0.3,0-0.5,0.1c-0.2,0.1-0.3,0.2-0.5,0.3
				c-0.2,0.2-0.4,0.3-0.5,0.5c-0.2,0.3-0.4,0.5-0.6,0.8v6.1c0,0.1,0,0.1-0.1,0.2c-0.1,0.1-0.1,0.1-0.2,0.2c-0.1,0-0.3,0.1-0.4,0.1
				c-0.2,0-0.4,0-0.6,0c-0.2,0-0.4,0-0.6,0c-0.1,0-0.3,0-0.4-0.1c-0.1,0-0.2-0.1-0.2-0.2c0-0.1-0.1-0.1-0.1-0.2v-9.8
				c0-0.1,0-0.1,0-0.2c0.1-0.1,0.1-0.1,0.2-0.2c0.1-0.1,0.2-0.1,0.4-0.1c0.2,0,0.3,0,0.6,0c0.2,0,0.4,0,0.6,0c0.1,0,0.2,0,0.3,0.1
				c0.1,0,0.1,0.1,0.2,0.2c0,0.1,0,0.1,0,0.2v1.2c0.2-0.3,0.5-0.6,0.7-0.9c0.2-0.2,0.4-0.4,0.6-0.6c0.2-0.1,0.4-0.2,0.6-0.3
				c0.2-0.1,0.4-0.1,0.6-0.1h0.3c0.1,0,0.2,0,0.3,0c0.1,0,0.2,0,0.3,0.1c0.1,0,0.1,0.1,0.2,0.1c0,0,0.1,0.1,0.1,0.1
				c0,0.1,0,0.1,0,0.2c0,0.1,0,0.2,0,0.3L215.8,16.3z"/>
			<path class="st0" d="M225.4,25.3c0,0.1,0,0.2-0.1,0.2c-0.1,0.1-0.2,0.1-0.4,0.1c-0.2,0-0.5,0.1-0.7,0
				c-0.2,0-0.5,0-0.7,0c-0.1,0-0.2-0.1-0.3-0.1c-0.1-0.1-0.1-0.1-0.1-0.2v-0.8c-0.4,0.4-0.9,0.8-1.4,1c-0.6,0.2-1.2,0.4-1.8,0.3
				c-0.5,0-1-0.1-1.5-0.2c-0.4-0.1-0.8-0.3-1.1-0.6c-0.3-0.3-0.6-0.6-0.7-1c-0.4-0.9-0.4-2,0.1-2.9c0.2-0.4,0.6-0.8,1-1
				c0.5-0.3,1.1-0.5,1.7-0.6c0.8-0.1,1.6-0.2,2.4-0.2h1v-0.6c0-0.3,0-0.5-0.1-0.8c-0.1-0.2-0.2-0.4-0.3-0.6
				c-0.2-0.2-0.4-0.3-0.6-0.3c-0.3-0.1-0.6-0.1-0.9-0.1c-0.4,0-0.8,0-1.3,0.2c-0.4,0.1-0.7,0.2-1,0.3c-0.2,0.1-0.5,0.2-0.7,0.3
				c-0.1,0.1-0.3,0.1-0.5,0.2c-0.1,0-0.2,0-0.2-0.1c-0.1-0.1-0.1-0.1-0.2-0.2c0-0.1-0.1-0.2-0.1-0.3c0-0.2,0-0.3,0-0.5
				c0-0.2,0-0.4,0-0.5c0-0.1,0.1-0.2,0.2-0.3c0.2-0.2,0.3-0.3,0.5-0.3c0.3-0.1,0.6-0.2,0.9-0.3c0.4-0.1,0.8-0.2,1.1-0.3
				c0.4-0.1,0.9-0.1,1.3-0.1c0.7,0,1.3,0.1,2,0.2c0.5,0.1,1,0.4,1.4,0.7c0.4,0.3,0.6,0.7,0.8,1.2c0.2,0.6,0.2,1.1,0.2,1.7
				L225.4,25.3L225.4,25.3z M222.7,20.8h-1c-0.4,0-0.8,0-1.2,0.1c-0.3,0-0.5,0.2-0.8,0.3c-0.2,0.1-0.3,0.3-0.4,0.5
				c-0.1,0.2-0.1,0.4-0.2,0.7c0,0.4,0.1,0.7,0.4,1c0.3,0.2,0.7,0.4,1.1,0.3c0.4,0,0.8-0.1,1.1-0.3c0.4-0.2,0.7-0.5,1-0.9L222.7,20.8
				L222.7,20.8z"/>
			<path class="st0" d="M230.8,25c0,0.1,0,0.1-0.1,0.2c-0.1,0.1-0.1,0.1-0.2,0.2c-0.1,0-0.3,0.1-0.4,0.1
				c-0.2,0-0.4,0-0.6,0c-0.2,0-0.4,0-0.6,0c-0.1,0-0.3,0-0.4-0.1c-0.1,0-0.2-0.1-0.2-0.2c0-0.1-0.1-0.1-0.1-0.2V10.8
				c0-0.1,0-0.1,0.1-0.2c0.1-0.1,0.1-0.1,0.2-0.1c0.1,0,0.3-0.1,0.4-0.1c0.2,0,0.4,0,0.6,0c0.2,0,0.4,0,0.6,0c0.2,0,0.3,0,0.4,0.1
				c0.1,0,0.2,0.1,0.2,0.1c0,0.1,0.1,0.1,0.1,0.2L230.8,25z"/>
			<path class="st0" d="M242.8,20c0.1,0.2,0.1,0.5-0.1,0.7c-0.2,0.2-0.4,0.2-0.6,0.1h-6c0,0.4,0,0.8,0.2,1.3
				c0.1,0.3,0.3,0.6,0.5,0.9c0.2,0.2,0.5,0.4,0.8,0.5c0.4,0.1,0.8,0.2,1.2,0.2c0.4,0,0.9,0,1.3-0.1c0.4-0.1,0.7-0.2,1-0.2
				c0.2-0.1,0.4-0.1,0.7-0.2c0.1-0.1,0.3-0.1,0.4-0.1c0.1,0,0.1,0,0.2,0c0,0,0.1,0.1,0.1,0.2c0,0.1,0.1,0.2,0.1,0.3v0.9
				c0,0.1,0,0.2,0,0.3c0,0.1,0,0.1-0.1,0.2c0,0-0.1,0.1-0.1,0.2c-0.1,0.1-0.2,0.1-0.4,0.2c-0.3,0.1-0.5,0.2-0.8,0.3
				c-0.3,0.1-0.7,0.2-1.1,0.2c-0.4,0.1-0.9,0.1-1.4,0.1c-0.8,0-1.6-0.1-2.3-0.3c-0.6-0.2-1.2-0.5-1.7-1c-0.5-0.5-0.8-1.1-1-1.7
				c-0.2-0.8-0.3-1.6-0.3-2.4c0-0.8,0.1-1.6,0.3-2.4c0.2-0.7,0.5-1.3,1-1.8c0.4-0.5,1-0.9,1.6-1.1c0.7-0.3,1.4-0.4,2.1-0.4
				c0.7,0,1.4,0.1,2.1,0.3c0.6,0.2,1,0.6,1.4,1c0.4,0.4,0.7,1,0.8,1.5c0.2,0.6,0.2,1.3,0.1,1.9L242.8,20L242.8,20z M240.2,19.3
				c0.1-0.7-0.1-1.3-0.5-1.9c-0.4-0.5-1-0.7-1.5-0.7c-0.3,0-0.6,0.1-0.9,0.2c-0.3,0.1-0.5,0.3-0.7,0.5c-0.2,0.2-0.3,0.5-0.4,0.8
				c-0.1,0.3-0.1,0.6-0.2,1L240.2,19.3z"/>
			<path class="st0" d="M261.3,25.7c-0.1,0-0.2,0.1-0.2,0.2c-0.1,0.1-0.1,0.1-0.2,0.2c-0.1,0.1-0.2,0.1-0.3,0.1
				c-0.2,0-0.3,0-0.5,0c-0.2,0-0.4,0-0.6,0c-0.1,0-0.2,0-0.3-0.1c-0.1,0-0.1-0.1-0.2-0.2c0,0-0.3-0.2-0.3-0.2v-1.1
				c-0.4,0.5-0.9,0.9-1.4,1.3c-0.6,0.3-1.2,0.5-1.9,0.5c-0.7,0-1.3-0.1-1.9-0.4c-0.5-0.3-0.9-0.7-1.3-1.2c-0.3-0.5-0.6-1.1-0.7-1.7
				c-0.1-0.7-0.2-1.4-0.2-2.1c0-0.8,0.1-1.6,0.3-2.4c0.2-0.6,0.4-1.2,0.8-1.8c0.3-0.5,0.8-0.9,1.4-1.1c0.6-0.3,1.2-0.4,1.9-0.4
				c0.5,0,1,0.1,1.5,0.3c0.5,0.2,1.6,1,1.6,1v-5.5c0-0.1,0-0.1,0.1-0.2c0.1-0.1,0.1-0.1,0.2-0.1c0.1,0,0.3-0.1,0.4-0.1
				c0.2,0,0.4,0,0.6,0c0.2,0,0.4,0,0.6,0c0.2,0,0.3,0,0.4,0.1c0.1,0,0.2,0.1,0.2,0.1c0,0.1,0.1,0.1,0.1,0.2L261.3,25.7L261.3,25.7z
				 M258.2,19.1c-0.3-0.4-0.7-0.8-1.2-1.2c-0.3-0.3-0.7-0.4-1.2-0.4c-0.3,0-0.7,0.1-0.9,0.3c-0.3,0.2-0.5,0.4-0.6,0.7
				c-0.2,0.3-0.3,0.7-0.3,1c-0.1,0.4-0.1,0.8-0.1,1.2c0,0.4,0,0.8,0.1,1.2c0.1,0.4,0.2,0.7,0.3,1c0.1,0.3,0.4,0.5,0.6,0.7
				c0.3,0.2,0.6,0.3,1,0.3c0.2,0,0.4,0,0.5-0.1c0.2-0.1,0.4-0.1,0.5-0.3c0.2-0.1,0.4-0.3,0.6-0.5c0.2-0.2,0.4-0.5,0.7-0.7
				L258.2,19.1z"/>
			<path class="st0" d="M272.9,20.4c0.1,0.2,0.1,0.5-0.1,0.7c-0.2,0.2-0.4,0.2-0.6,0.1h-6c0,0.4,0,0.9,0.2,1.3
				c0.1,0.3,0.3,0.6,0.5,0.9c0.2,0.2,0.5,0.4,0.8,0.5c0.4,0.1,0.8,0.2,1.2,0.2c0.4,0,0.9,0,1.3-0.1c0.4-0.1,0.7-0.2,1-0.2
				c0.2-0.1,0.4-0.1,0.7-0.2c0.1-0.1,0.3-0.1,0.4-0.1c0.1,0,0.1,0,0.2,0c0,0,0.1,0.1,0.1,0.2c0,0.1,0.1,0.2,0.1,0.3v0.9
				c0,0.1,0,0.2,0,0.3c0,0.1,0,0.1-0.1,0.2c0,0-0.1,0.1-0.1,0.2c-0.1,0.1-0.2,0.1-0.4,0.2c-0.2,0.1-0.5,0.2-0.8,0.3
				c-0.3,0.1-0.7,0.2-1.1,0.2c-0.4,0.1-0.9,0.1-1.4,0.1c-0.8,0-1.6-0.1-2.3-0.3c-0.6-0.2-1.2-0.5-1.7-1c-0.5-0.5-0.8-1.1-1-1.7
				c-0.2-0.8-0.3-1.6-0.3-2.4c0-0.8,0.1-1.6,0.3-2.4c0.2-0.7,0.5-1.3,1-1.8c0.4-0.5,1-0.9,1.6-1.1c0.7-0.3,1.4-0.4,2.1-0.4
				c0.7,0,1.4,0.1,2.1,0.3c0.6,0.2,1,0.6,1.4,1c0.4,0.4,0.7,1,0.8,1.5c0.2,0.6,0.3,1.3,0.1,1.9L272.9,20.4L272.9,20.4z M270.3,19.7
				c0.1-0.7-0.1-1.3-0.5-1.9c-0.4-0.5-1-0.7-1.5-0.7c-0.3,0-0.6,0.1-0.9,0.2c-0.3,0.1-0.5,0.3-0.7,0.5c-0.2,0.2-0.3,0.5-0.4,0.8
				c-0.1,0.3-0.1,0.6-0.2,1L270.3,19.7z"/>
			<path class="st0" d="M282.4,22.9c0,0.5-0.1,1-0.3,1.5c-0.2,0.4-0.5,0.8-0.9,1.1c-0.4,0.3-0.9,0.5-1.4,0.7
				c-0.6,0.2-1.1,0.2-1.7,0.2c-0.3,0-0.7,0-1-0.1c-0.3,0-0.6-0.1-0.9-0.2c-0.2-0.1-0.5-0.1-0.7-0.3c-0.2-0.1-0.3-0.2-0.4-0.2
				c-0.1-0.1-0.2-0.2-0.2-0.3c-0.1-0.2-0.1-0.5-0.1-0.7c0-0.2,0-0.3,0-0.5c0-0.1,0-0.2,0.1-0.3c0-0.1,0.1-0.1,0.1-0.2
				c0,0,0.1,0,0.2,0c0.1,0,0.2,0.1,0.3,0.2c0.2,0.1,0.3,0.2,0.6,0.3c0.3,0.1,0.5,0.2,0.8,0.3c0.4,0.1,0.7,0.1,1.1,0.2
				c0.2,0,0.4,0,0.6-0.1c0.2,0,0.3-0.1,0.5-0.2c0.1-0.1,0.3-0.2,0.3-0.4c0.1-0.2,0.1-0.3,0.1-0.5c0-0.2-0.1-0.4-0.2-0.6
				c-0.2-0.2-0.3-0.3-0.5-0.4c-0.3-0.1-0.5-0.2-0.8-0.3c-0.3-0.1-0.6-0.2-0.9-0.3c-0.3-0.1-0.6-0.3-0.9-0.4
				c-0.3-0.2-0.5-0.4-0.8-0.6c-0.2-0.2-0.4-0.5-0.5-0.8c-0.1-0.4-0.2-0.8-0.2-1.2c0-0.5,0.1-0.9,0.3-1.3c0.2-0.4,0.5-0.7,0.8-1
				c0.4-0.3,0.8-0.5,1.3-0.7c0.5-0.2,1.1-0.2,1.7-0.2c0.3,0,0.6,0,0.9,0.1c0.3,0,0.5,0.1,0.8,0.2c0.2,0,0.4,0.1,0.6,0.2
				c0.2,0.1,0.3,0.2,0.3,0.2s0.1,0.1,0.2,0.2s0,0.1,0.1,0.2c0,0.1,0,0.2,0,0.3v0.9c0,0.1,0,0.2,0,0.3c0,0.1-0.1,0.1-0.1,0.2
				c0,0-0.1,0-0.2,0c-0.1,0-0.2-0.1-0.3-0.1c-0.2-0.1-0.4-0.2-0.5-0.2c-0.2-0.1-0.5-0.2-0.7-0.2c-0.5-0.1-1.1-0.2-1.6,0
				c-0.2,0-0.3,0.1-0.5,0.2c-0.1,0.1-0.2,0.2-0.3,0.3c-0.1,0.1-0.1,0.3-0.1,0.4c0,0.2,0.1,0.4,0.2,0.6c0.2,0.2,0.3,0.3,0.5,0.4
				c0.2,0.1,0.5,0.2,0.8,0.3c0.3,0.1,0.6,0.2,0.9,0.3c0.3,0.1,0.6,0.3,0.9,0.4c0.3,0.1,0.5,0.3,0.8,0.6c0.2,0.2,0.4,0.5,0.5,0.8
				C282.4,22.1,282.4,22.4,282.4,22.9z"/>
			<path class="st0" d="M301.2,13.6c0,0.2,0,0.4,0,0.6c0,0.1,0,0.3-0.1,0.4c0,0.1-0.1,0.1-0.1,0.2c0,0-0.1,0-0.1,0
				c-0.2,0-0.3-0.1-0.4-0.2c-0.2-0.1-0.5-0.3-0.8-0.4c-0.4-0.2-0.8-0.3-1.2-0.4c-0.5-0.1-1.1-0.2-1.6-0.2c-0.6,0-1.2,0.1-1.8,0.4
				c-0.5,0.2-1,0.6-1.4,1.1c-0.4,0.5-0.7,1.1-0.9,1.7c-0.2,0.7-0.3,1.4-0.3,2.2c0,0.8,0.1,1.5,0.3,2.3c0.2,0.6,0.5,1.2,0.9,1.7
				c0.4,0.4,0.8,0.8,1.3,1c0.5,0.2,1.1,0.3,1.7,0.3c0.3,0,0.6,0,0.9-0.1c0.3-0.1,0.6-0.2,0.8-0.4v-3.5h-2.6c-0.1,0-0.2-0.1-0.3-0.2
				c-0.1-0.3-0.1-0.6-0.1-0.9c0-0.2,0-0.4,0-0.5c0-0.1,0-0.3,0.1-0.4c0-0.1,0.1-0.1,0.1-0.2c0,0,0.1-0.1,0.2-0.1h4.6
				c0.1,0,0.2,0,0.3,0.1c0.1,0.1,0.2,0.1,0.2,0.2c0.1,0.1,0.1,0.2,0.1,0.3c0,0.1,0,0.3,0,0.4v6c0,0.2,0,0.4-0.1,0.6
				c-0.1,0.2-0.2,0.3-0.4,0.4c-0.2,0.1-0.5,0.2-0.8,0.3c-0.3,0.1-0.7,0.2-1,0.3c-0.4,0.1-0.7,0.1-1.1,0.2c-0.4,0-0.7,0-1.1,0
				c-1,0-2-0.2-2.9-0.5c-0.8-0.3-1.6-0.9-2.2-1.5c-0.6-0.7-1.1-1.5-1.4-2.4c-0.3-1-0.5-2.1-0.5-3.2c0-1.1,0.2-2.3,0.5-3.3
				c0.3-0.9,0.8-1.8,1.4-2.5c0.6-0.7,1.4-1.2,2.2-1.6c0.9-0.4,1.9-0.5,2.9-0.5c0.5,0,1.1,0,1.6,0.1c0.4,0.1,0.8,0.2,1.2,0.3
				c0.3,0.1,0.6,0.2,0.9,0.4c0.2,0.2,0.4,0.3,0.5,0.4c0.1,0.1,0.2,0.3,0.2,0.4C301.1,13,301.2,13.3,301.2,13.6z"/>
			<path class="st0" d="M314.4,21.6c0,0.5-0.1,0.9-0.2,1.4c-0.1,0.4-0.3,0.8-0.6,1.1c-0.2,0.3-0.5,0.6-0.9,0.8
				c-0.4,0.2-0.7,0.4-1.1,0.6c-0.4,0.2-0.9,0.3-1.3,0.3c-0.5,0.1-1,0.1-1.5,0.1H305c-0.2,0-0.5-0.1-0.6-0.2
				c-0.2-0.2-0.3-0.4-0.2-0.7V12.5c0-0.3,0.1-0.5,0.2-0.7c0.2-0.2,0.4-0.2,0.6-0.2h3.6c0.8,0,1.5,0.1,2.2,0.2
				c0.5,0.1,1.1,0.4,1.5,0.7c0.4,0.3,0.7,0.7,1,1.1c0.2,0.5,0.4,1.1,0.3,1.6c0,0.3,0,0.6-0.1,1c-0.1,0.3-0.2,0.6-0.4,0.8
				c-0.2,0.2-0.4,0.5-0.6,0.7c-0.3,0.2-0.5,0.4-0.8,0.5c0.4,0.1,0.8,0.2,1.1,0.4c0.3,0.2,0.6,0.4,0.9,0.7c0.3,0.3,0.5,0.6,0.6,1
				C314.4,20.7,314.4,21.1,314.4,21.6z M310.7,15.8c0-0.3,0-0.5-0.1-0.8c-0.1-0.2-0.2-0.4-0.4-0.6c-0.2-0.2-0.4-0.3-0.7-0.4
				c-0.4-0.1-0.7-0.1-1.1-0.1h-1.5v3.9h1.7c0.4,0,0.7,0,1-0.2c0.2-0.1,0.5-0.3,0.6-0.4c0.2-0.2,0.3-0.4,0.4-0.6
				C310.7,16.3,310.7,16,310.7,15.8L310.7,15.8z M311.6,21.9c0-0.3,0-0.6-0.2-0.9c-0.1-0.3-0.3-0.5-0.5-0.7
				c-0.3-0.2-0.5-0.3-0.8-0.4c-0.4-0.1-0.9-0.2-1.3-0.2h-1.8v4.2h2.2c0.4,0,0.7,0,1.1-0.1c0.3-0.1,0.5-0.2,0.8-0.4
				c0.2-0.2,0.4-0.4,0.5-0.6C311.5,22.5,311.6,22.2,311.6,21.9L311.6,21.9z"/>
			<path class="st0" d="M323.5,25.7c0,0.1-0.1,0.2-0.2,0.3c-0.1,0.1-0.2,0.2-0.3,0.2c-0.2,0.1-0.4,0.1-0.5,0.1h-1.7
				c-0.2,0-0.4,0-0.5,0c-0.1,0-0.2,0-0.3-0.1l-0.2-0.1c-0.1,0-0.1-0.1-0.2-0.2c0-0.1-0.1-0.1-0.1-0.2L315.2,13
				c-0.1-0.2-0.1-0.4-0.2-0.6c0-0.2,0-0.3,0.1-0.3c0.1-0.1,0.3-0.1,0.5-0.2c0.2,0,0.5,0,0.9,0c0.3,0,0.5,0,0.8,0
				c0.1,0,0.3,0,0.4,0.1c0.1,0,0.2,0.1,0.2,0.2c0,0.1,0.1,0.2,0.1,0.3l3.5,11l0,0l3.4-11c0-0.1,0.1-0.2,0.1-0.3
				c0-0.1,0.1-0.2,0.2-0.2c0.1-0.1,0.3-0.1,0.5-0.1c0.2,0,0.5,0,0.8,0c0.3,0,0.5,0,0.8,0c0.1,0,0.3,0.1,0.4,0.2
				c0.1,0.1,0.1,0.2,0.1,0.3c0,0.2-0.1,0.3-0.2,0.6L323.5,25.7z"/>
			<g id="Gruppe_10" transform="translate(5.957 6.407)">
				<g id="Gruppe_9" transform="translate(0)">
					<path id="Pfad_9" class="st0" d="M13.3,14c-1.1,2.9-2.5,6.5-2.9,8.1c-0.1,0.1-0.3,0.2-0.5,0.2c-0.2,0-0.4-0.1-0.5-0.2
						c-0.4-1.4-0.8-2.8-1.3-4.1L3,4.8C2.2,2.7,1.9,2.3,0.8,2L0.1,1.9C-0.1,1.7-0.1,1.1,0.2,1c1.1,0.1,2.3,0.1,3.4,0.1
						c1.3,0,2.2,0,3.7-0.1c0.3,0.2,0.3,0.6,0.1,0.9c0,0,0,0,0,0L6.7,2.1C6.1,2.3,5.8,2.4,5.8,2.7c0.3,1.4,0.8,2.8,1.4,4.2l2,5.6
						c0.5,1.4,1.3,3.3,1.5,4c1.5-4,3.2-8.3,4.8-12.6c0.5-1.2,0.4-1.5-0.5-1.7l-0.8-0.2c-0.2-0.3-0.2-0.8,0.1-0.9
						c1.2,0.1,2.1,0.1,3.1,0.1c1,0,2,0,2.8-0.1c0.2,0.2,0.2,0.6,0.1,0.9l-0.7,0.1c-0.8,0.1-1.4,0.6-1.8,1.3
						c-0.8,1.5-1.6,3.6-2.9,6.8L13.3,14z"/>
					<path class="st0" d="M33.1,0.9c1.9,0,2.8-0.1,3.2-0.1c0.2,0.1,0.3,0.3,0.3,0.5c-1.6,2.2-3,4.5-4.4,6.8l-4.6,7.7
						c-0.9,1.3-1.6,2.7-2.3,4.1c0,0.3,0.4,0.5,0.9,0.5c0.6,0,1.2,0.1,3.3,0.1c2.6,0,4.1-0.2,4.9-0.7c1-0.9,1.8-2,2.1-3.3
						c0.3-0.2,0.8-0.1,0.9,0.3c-0.2,1.8-0.6,3.5-1.4,5.2c-0.8,0-1.6-0.1-2.5-0.1c-0.9,0-1.8,0-2.9,0h-7.4c-1.6,0-2.5,0-3,0.1
						c-0.2-0.1-0.2-0.3-0.2-0.5c0.4-0.6,2-2.8,3.3-4.9L29.8,6c0.8-1.1,1.4-2.4,2-3.6c0-0.2-0.4-0.2-1-0.2h-3.5
						c-2.2,0-3.5,0.3-4.2,1.1c-0.6,0.7-1,1.5-1.3,2.4c-0.3,0.2-0.7,0.1-0.9-0.2c0,0,0,0,0-0.1c0.4-1.8,0.9-3.6,1.2-5.3
						c0.1-0.1,0.3-0.1,0.5,0c0.2,0.7,0.8,0.8,3,0.8C25.6,0.9,33.1,0.9,33.1,0.9z"/>
					<path class="st0" d="M56,18.7c0,1.1,0.2,2,0.7,2.2c0.1,0.1,0.1,0.4,0,0.5c-0.5,0-0.9,0.1-1.4,0.3
						c-1.8,0.5-3.7,0.8-5.6,0.8c-3.5,0-6.8-1-8.9-3.5c-1.7-2.1-2.6-4.7-2.5-7.4c0-2.8,0.9-5.4,2.7-7.6c2-2.4,5.2-3.8,9.3-3.8
						c1.3,0,2.6,0.2,3.9,0.5C54.5,0.9,55.1,1,55.7,1c0,1,0.2,2.6,0.4,5.1c-0.2,0.3-0.6,0.3-0.8,0.1c0,0-0.1,0-0.1-0.1
						c-0.3-2.8-2.8-4.8-5.6-4.7C44.5,1.5,42,5.6,42,11c-0.1,2.6,0.6,5.2,2.1,7.4c1.3,1.7,3.4,2.7,5.6,2.7c1.4,0,2.2-0.3,2.6-0.7
						c0.3-0.6,0.4-1.3,0.3-2v-1.2c0-2.3,0-2.5-2-2.8l-1-0.2c-0.2-0.3-0.2-0.7,0-0.9c1.1,0.1,2.5,0.1,4.5,0.1c1.3,0,2.3,0,3.5-0.1
						c0.3,0.2,0.3,0.6,0.1,0.9c0,0,0,0,0,0l-0.5,0.1c-1.1,0.2-1.2,0.5-1.2,2.4L56,18.7L56,18.7z"/>
				</g>
				<rect id="Rechteck_3" x="64" y="1.2" class="st0" width="4.2" height="20.9"/>
			</g>
			<g id="Rechteck_4" transform="translate(0 -0.422)">
				<rect x="0" y="0" class="st1" width="82" height="36"/>
				<rect x="0.5" y="0.5" class="st2" width="81" height="35"/>
			</g>
		</g>
	</g>
</g>
</svg>
