<svg xmlns="http://www.w3.org/2000/svg" width="477.336" height="120.42" viewBox="0 0 477.336 120.42">
  <g id="logo" transform="translate(-101.287 -70)">
    <path id="Pfad_56" data-name="Pfad 56" d="M22-4.856a22.506,22.506,0,0,0,3.528-.27,22.836,22.836,0,0,0,2.7-.56V-.415a12.6,12.6,0,0,1-3.3.892A24.778,24.778,0,0,1,21,.83Q7.8.83,7.8-13.074V-40.134H1.287v-3.32L7.8-46.318l2.905-9.712h3.984v10.542h13.2v5.354h-13.2v26.77a9.209,9.209,0,0,0,1.951,6.309A6.788,6.788,0,0,0,22-4.856ZM56.528.83Q46.443.83,40.612-5.312T34.78-22.371q0-11,5.416-17.473t14.547-6.475q8.55,0,13.53,5.624t4.98,14.838V-21.5H41.919q.208,8.01,4.047,12.161t10.812,4.15A36.638,36.638,0,0,0,71.3-8.259v6.143A36.46,36.46,0,0,1,64.393.145,38.835,38.835,0,0,1,56.528.83ZM54.661-40.549a11.251,11.251,0,0,0-8.737,3.569q-3.258,3.569-3.839,9.878H65.867q0-6.516-2.905-9.982T54.661-40.549Zm51.091-5.769a26.959,26.959,0,0,1,5.437.5l-.955,6.392a23.469,23.469,0,0,0-4.98-.623,12.123,12.123,0,0,0-9.442,4.482A16.344,16.344,0,0,0,91.89-24.4V0H85V-45.488h5.686l.789,8.425h.332a20,20,0,0,1,6.1-6.848A13.734,13.734,0,0,1,105.752-46.318ZM177.678,0V-29.592q0-5.437-2.324-8.156t-7.222-2.719q-6.433,0-9.5,3.694T155.557-25.4V0h-6.89V-29.592q0-5.437-2.324-8.156t-7.263-2.719q-6.475,0-9.484,3.881t-3.009,12.721V0H119.7V-45.488h5.6l1.121,6.226h.332a13.541,13.541,0,0,1,5.5-5.188,16.8,16.8,0,0,1,7.948-1.868q10.667,0,13.945,7.72h.332a14.5,14.5,0,0,1,5.894-5.645,18.287,18.287,0,0,1,8.8-2.075q7.72,0,11.559,3.964t3.839,12.679V0Zm27.974,0h-6.89V-45.488h6.89Zm-7.471-57.815a4.576,4.576,0,0,1,1.162-3.466,4.061,4.061,0,0,1,2.905-1.1,4.059,4.059,0,0,1,2.864,1.121,4.493,4.493,0,0,1,1.2,3.445,4.564,4.564,0,0,1-1.2,3.466,4.019,4.019,0,0,1-2.864,1.141,3.98,3.98,0,0,1-2.905-1.141A4.661,4.661,0,0,1,198.181-57.815ZM251.389,0V-29.426q0-5.562-2.532-8.3t-7.927-2.739q-7.139,0-10.459,3.86t-3.32,12.742V0h-6.89V-45.488h5.6l1.121,6.226h.332a14.068,14.068,0,0,1,5.935-5.209,19.284,19.284,0,0,1,8.508-1.847q8.218,0,12.368,3.964t4.15,12.679V0Zm60.305-22.786q0,11.123-5.6,17.369T290.61.83a20.5,20.5,0,0,1-10.833-2.864,18.9,18.9,0,0,1-7.3-8.218A28.64,28.64,0,0,1,269.9-22.786q0-11.123,5.562-17.328t15.439-6.2q9.546,0,15.17,6.35T311.694-22.786Zm-34.656,0q0,8.716,3.486,13.281t10.251,4.565q6.765,0,10.272-4.545t3.507-13.3q0-8.674-3.507-13.177t-10.355-4.5q-6.765,0-10.21,4.441T277.039-22.786ZM330.662,0h-6.89V-64.58h6.89Zm53.872-22.786q0,11.123-5.6,17.369T363.45.83a20.5,20.5,0,0,1-10.833-2.864,18.9,18.9,0,0,1-7.3-8.218,28.64,28.64,0,0,1-2.573-12.534q0-11.123,5.562-17.328t15.439-6.2q9.546,0,15.17,6.35T384.534-22.786Zm-34.656,0q0,8.716,3.486,13.281t10.251,4.565q6.765,0,10.272-4.545t3.507-13.3q0-8.674-3.507-13.177t-10.355-4.5q-6.765,0-10.21,4.441T349.878-22.786Zm83.962-22.7v4.358l-8.425,1a14.483,14.483,0,0,1,2.075,3.8,14.489,14.489,0,0,1,.913,5.292,13.447,13.447,0,0,1-4.565,10.667q-4.565,3.984-12.534,3.984a20.873,20.873,0,0,1-3.818-.332q-4.4,2.324-4.4,5.852a2.973,2.973,0,0,0,1.536,2.76,11.218,11.218,0,0,0,5.271.892h8.052q7.388,0,11.351,3.113t3.964,9.048a12.916,12.916,0,0,1-6.06,11.517q-6.06,3.964-17.681,3.964-8.923,0-13.759-3.32a10.72,10.72,0,0,1-4.835-9.38A10.535,10.535,0,0,1,393.582.54a13.525,13.525,0,0,1,7.471-4.109,7.207,7.207,0,0,1-2.926-2.449,6.48,6.48,0,0,1-1.183-3.86,7.326,7.326,0,0,1,1.328-4.358,13.963,13.963,0,0,1,4.192-3.611,12.287,12.287,0,0,1-5.748-4.939,14.513,14.513,0,0,1-2.22-7.969q0-7.471,4.482-11.517t12.7-4.047a23.094,23.094,0,0,1,6.433.83ZM397.566,7.637a6.174,6.174,0,0,0,3.113,5.6q3.113,1.909,8.923,1.909,8.674,0,12.845-2.594a7.942,7.942,0,0,0,4.171-7.035q0-3.694-2.283-5.126t-8.591-1.432h-8.259q-4.69,0-7.3,2.241A8.008,8.008,0,0,0,397.566,7.637ZM401.3-30.92q0,4.773,2.7,7.222t7.512,2.449q10.085,0,10.085-9.795,0-10.251-10.21-10.251-4.856,0-7.471,2.615T401.3-30.92Zm34.656-14.568h7.388l9.961,25.94a98.667,98.667,0,0,1,4.067,12.825h.332q.54-2.117,2.262-7.242t11.268-31.522h7.388l-19.548,51.8q-2.905,7.678-6.786,10.895a14.43,14.43,0,0,1-9.525,3.217,27.717,27.717,0,0,1-6.226-.706v-5.52a24.015,24.015,0,0,0,5.1.5q7.1,0,10.127-7.969L454.3.249Z" transform="translate(100 170)" fill="#fff"/>
    <g id="Gruppe_12" data-name="Gruppe 12" transform="translate(0 1.422)">
      <g id="Gruppe_11" data-name="Gruppe 11" transform="translate(106 69)">
        <path id="Pfad_12" data-name="Pfad 12" d="M238.641,42.458a.776.776,0,0,1-.154.309.692.692,0,0,1-.27.193,1.79,1.79,0,0,1-.54.077h-1.66a2.374,2.374,0,0,1-.54-.039.771.771,0,0,1-.347-.077l-.232-.116c-.077-.039-.116-.116-.154-.154a.548.548,0,0,1-.077-.232l-4.246-12.661a2.826,2.826,0,0,1-.154-.618c0-.154,0-.27.116-.347a.908.908,0,0,1,.463-.154c.232,0,.54-.039.926-.039a4.7,4.7,0,0,1,.811.039,1.033,1.033,0,0,1,.425.077.355.355,0,0,1,.232.154,1.892,1.892,0,0,1,.116.27l3.474,11.04h0l3.4-10.963a2.659,2.659,0,0,1,.116-.309.4.4,0,0,1,.232-.193,1.44,1.44,0,0,1,.463-.077c.193,0,.463-.039.811-.039a4,4,0,0,1,.772.039.726.726,0,0,1,.386.154c.077.077.077.193.077.347-.039.154-.077.347-.154.618Z" transform="translate(-141.768 -17.56)" fill="#fff"/>
        <path id="Pfad_13" data-name="Pfad 13" d="M272.85,43.15a.983.983,0,0,1-.232.733.815.815,0,0,1-.618.232h-5.983a3.658,3.658,0,0,0,.154,1.158,3.229,3.229,0,0,0,.463.888,2.142,2.142,0,0,0,.849.54,3.95,3.95,0,0,0,1.235.193,5.975,5.975,0,0,0,1.274-.116c.386-.077.695-.154.965-.232a4.138,4.138,0,0,0,.656-.232,1.172,1.172,0,0,1,.425-.116c.077,0,.116,0,.154.039a.532.532,0,0,1,.116.154,2.466,2.466,0,0,1,.077.27v.888a.849.849,0,0,1-.039.309.3.3,0,0,1-.077.193c-.039.039-.077.116-.116.154a1.675,1.675,0,0,1-.386.193,6.6,6.6,0,0,1-.811.27c-.347.077-.695.154-1.12.232a7.711,7.711,0,0,1-1.351.077,6.964,6.964,0,0,1-2.316-.347,4.262,4.262,0,0,1-1.66-1,4.615,4.615,0,0,1-1-1.7,7.66,7.66,0,0,1-.309-2.393,7.37,7.37,0,0,1,.347-2.355,4.962,4.962,0,0,1,1-1.776,4.224,4.224,0,0,1,1.583-1.119,5.212,5.212,0,0,1,2.123-.386,5.825,5.825,0,0,1,2.123.347,3.54,3.54,0,0,1,1.428,1,3.492,3.492,0,0,1,.811,1.544,7.766,7.766,0,0,1,.27,1.93l-.039.425Zm-2.639-.579a2.774,2.774,0,0,0-.463-1.853,1.769,1.769,0,0,0-1.544-.656,2.332,2.332,0,0,0-.926.193,1.765,1.765,0,0,0-.656.54,2.627,2.627,0,0,0-.386.811,3.882,3.882,0,0,0-.154.965Z" transform="translate(-161.99 -23.27)" fill="#fff"/>
        <path id="Pfad_14" data-name="Pfad 14" d="M300.562,39.583a3.032,3.032,0,0,1-.042.656.894.894,0,0,1-.085.386.835.835,0,0,1-.127.193.345.345,0,0,1-.212.039.414.414,0,0,1-.212-.039c-.085-.039-.17-.039-.255-.077s-.212-.039-.339-.077a1.284,1.284,0,0,0-.382-.039,2.32,2.32,0,0,0-.509.077,1.8,1.8,0,0,0-.509.309,2.4,2.4,0,0,0-.552.54,7.425,7.425,0,0,0-.636.811v6.123a.286.286,0,0,1-.075.188.58.58,0,0,1-.225.15,1.158,1.158,0,0,1-.413.075c-.188,0-.375.037-.638.037a3.053,3.053,0,0,1-.638-.037,1.157,1.157,0,0,1-.413-.075.345.345,0,0,1-.225-.15.286.286,0,0,1-.075-.188V38.656a.294.294,0,0,1,.038-.193.836.836,0,0,1,.19-.154.94.94,0,0,1,.38-.077c.152,0,.342-.039.569-.039a2.477,2.477,0,0,1,.57.039.748.748,0,0,1,.342.077.381.381,0,0,1,.19.154.294.294,0,0,1,.038.193v1.235a11.15,11.15,0,0,1,.721-.926,7.752,7.752,0,0,1,.645-.579,2.259,2.259,0,0,1,.608-.309A1.647,1.647,0,0,1,298.9,38h.561c.127,0,.254.039.382.039.127.039.254.039.339.077a.939.939,0,0,1,.212.116c.042.039.085.077.085.116a1.54,1.54,0,0,1,.042.193c0,.077.042.193.042.347Z" transform="translate(-180.901 -23.331)" fill="#fff"/>
        <path id="Pfad_15" data-name="Pfad 15" d="M324.8,36.316a8.773,8.773,0,0,1-.27,2.355,5.394,5.394,0,0,1-.811,1.776,3.3,3.3,0,0,1-1.312,1.119,3.919,3.919,0,0,1-1.814.386,6.4,6.4,0,0,1-.926-.077,2.936,2.936,0,0,1-.811-.309,4.692,4.692,0,0,1-.772-.54,7.279,7.279,0,0,1-.772-.772v1.089a.286.286,0,0,1-.075.187.819.819,0,0,1-.186.149.938.938,0,0,1-.374.074c-.149,0-.336.037-.56.037a2.467,2.467,0,0,1-.56-.037.745.745,0,0,1-.336-.074.375.375,0,0,1-.187-.149.28.28,0,0,1-.037-.187V26.813a.286.286,0,0,1,.075-.188.344.344,0,0,1,.225-.15,1.158,1.158,0,0,1,.413-.075,3.244,3.244,0,0,1,.638-.037,3.052,3.052,0,0,1,.638.037c.188.038.3.038.413.075a.345.345,0,0,1,.225.15c.037.075.075.112.075.188v5.449c.232-.232.5-.463.733-.656a3.591,3.591,0,0,1,.733-.425,2.562,2.562,0,0,1,.772-.232,5.783,5.783,0,0,1,.849-.077,3.865,3.865,0,0,1,1.853.425,3.952,3.952,0,0,1,1.235,1.158,5.453,5.453,0,0,1,.695,1.737A9.668,9.668,0,0,1,324.8,36.316Zm-2.895.193a11.7,11.7,0,0,0-.077-1.2,4.117,4.117,0,0,0-.309-1.042,1.908,1.908,0,0,0-.618-.733,1.394,1.394,0,0,0-.926-.27,2.607,2.607,0,0,0-.54.077,1.772,1.772,0,0,0-.54.27,2.241,2.241,0,0,0-.579.5,6.155,6.155,0,0,0-.618.733V38.13a6.462,6.462,0,0,0,1.119,1.158,1.792,1.792,0,0,0,1.119.386,1.539,1.539,0,0,0,.926-.27,2.315,2.315,0,0,0,.618-.733,3.842,3.842,0,0,0,.347-1C321.871,37.242,321.91,36.895,321.91,36.509Z" transform="translate(-193.795 -16.186)" fill="#fff"/>
        <path id="Pfad_16" data-name="Pfad 16" d="M356.264,48.791a.289.289,0,0,1-.039.193.842.842,0,0,1-.193.154.922.922,0,0,1-.347.077c-.116,0-.347.039-.579.039a2.556,2.556,0,0,1-.579-.039,2.46,2.46,0,0,1-.347-.077.385.385,0,0,1-.193-.154.289.289,0,0,1-.039-.193V47.667a5.577,5.577,0,0,1-1.642,1.3,3.563,3.563,0,0,1-1.718.42,3.651,3.651,0,0,1-1.68-.344,3.221,3.221,0,0,1-1.107-.878,3.7,3.7,0,0,1-.611-1.3A8.288,8.288,0,0,1,347,44.994V38.9a.286.286,0,0,1,.075-.188.576.576,0,0,1,.225-.15,1.158,1.158,0,0,1,.413-.075c.188,0,.375-.037.638-.037a3.053,3.053,0,0,1,.638.037,1.157,1.157,0,0,1,.413.075.345.345,0,0,1,.225.15.286.286,0,0,1,.075.188v5.578a4.737,4.737,0,0,0,.115,1.185,1.767,1.767,0,0,0,.8,1.146,1.455,1.455,0,0,0,.726.153,1.834,1.834,0,0,0,1.07-.382,7.53,7.53,0,0,0,1.147-1.108V38.909s-.014-.154.025-.193a.594.594,0,0,1,.232-.154,1.191,1.191,0,0,1,.425-.077c.193,0,.386-.039.656-.039a3.132,3.132,0,0,1,.656.039,1.192,1.192,0,0,1,.425.077.355.355,0,0,1,.232.154c.039.039-.334.193-.334.193l.386,9.882Z" transform="translate(-213.442 -23.605)" fill="#fff"/>
        <path id="Pfad_17" data-name="Pfad 17" d="M387.65,48.581a.325.325,0,0,1-.085.212.652.652,0,0,1-.254.169,1.3,1.3,0,0,1-.465.085c-.212,0-.423.042-.719.042a4.1,4.1,0,0,1-.762-.042,1.3,1.3,0,0,1-.465-.085.389.389,0,0,1-.254-.169c-.042-.085-.084-.127-.084-.212V42.967a4.321,4.321,0,0,0-.116-1.119,1.908,1.908,0,0,0-.309-.695,1.445,1.445,0,0,0-.5-.463,1.469,1.469,0,0,0-.733-.154,1.852,1.852,0,0,0-1.081.386,6.1,6.1,0,0,0-1.119,1.119V48.61a.286.286,0,0,1-.075.188.579.579,0,0,1-.225.15,1.157,1.157,0,0,1-.413.075c-.188,0-.375.037-.638.037a3.053,3.053,0,0,1-.638-.037,1.158,1.158,0,0,1-.413-.075.345.345,0,0,1-.225-.15A.286.286,0,0,1,378,48.61V38.718a.286.286,0,0,1,.038-.19.831.831,0,0,1,.19-.152.956.956,0,0,1,.38-.076c.152,0,.342-.038.569-.038a2.5,2.5,0,0,1,.57.038.762.762,0,0,1,.342.076.381.381,0,0,1,.19.152.285.285,0,0,1,.038.19v1.131a5.546,5.546,0,0,1,1.633-1.291,3.59,3.59,0,0,1,1.747-.418,3.746,3.746,0,0,1,1.671.342,2.82,2.82,0,0,1,1.1.873,3.679,3.679,0,0,1,.608,1.291,8.133,8.133,0,0,1,.19,1.822l.386,6.135Z" transform="translate(-232.476 -23.417)" fill="#fff"/>
        <path id="Pfad_18" data-name="Pfad 18" d="M418.343,41.423a.289.289,0,0,1-.039.193.842.842,0,0,1-.193.154.771.771,0,0,1-.347.077c-.154,0-.347.039-.54.039a2.556,2.556,0,0,1-.579-.039.771.771,0,0,1-.347-.077.385.385,0,0,1-.193-.154.3.3,0,0,1-.077-.193v-1.08a6.748,6.748,0,0,1-1.583,1.274,3.668,3.668,0,0,1-1.853.463,4.027,4.027,0,0,1-1.892-.425,4.571,4.571,0,0,1-1.274-1.158,4.967,4.967,0,0,1-.7-1.737,11.887,11.887,0,0,1-.232-2.085,8.773,8.773,0,0,1,.27-2.355,5.394,5.394,0,0,1,.811-1.776,3.16,3.16,0,0,1,1.351-1.119,4.084,4.084,0,0,1,1.853-.386,3.319,3.319,0,0,1,1.505.347,5.1,5.1,0,0,1,1.351,1V26.909s-.091-.154-.052-.193a.354.354,0,0,1,.232-.154,1.192,1.192,0,0,1,.425-.077c.193,0,.386-.039.656-.039a3.133,3.133,0,0,1,.656.039c.193.039.309.039.425.077a.355.355,0,0,1,.232.154c.039.077-.256.193-.256.193l.386,14.514Zm-2.7-6.6a5.46,5.46,0,0,0-1.158-1.158,1.822,1.822,0,0,0-1.158-.386,1.539,1.539,0,0,0-.926.27,1.908,1.908,0,0,0-.618.733,4.414,4.414,0,0,0-.347,1,5.894,5.894,0,0,0-.116,1.158,6,6,0,0,0,.116,1.2,6.683,6.683,0,0,0,.309,1.042,1.908,1.908,0,0,0,.618.733,1.507,1.507,0,0,0,.965.27,2.279,2.279,0,0,0,.54-.077,1.772,1.772,0,0,0,.54-.27,2.243,2.243,0,0,0,.579-.5c.193-.193.425-.463.656-.733Z" transform="translate(-251.202 -16.237)" fill="#fff"/>
        <path id="Pfad_19" data-name="Pfad 19" d="M446.567,48.244a2.442,2.442,0,0,1-.039.569,2.734,2.734,0,0,1-.078.366.4.4,0,0,1-.156.2.336.336,0,0,1-.194.041h-6.481a.63.63,0,0,1-.466-.2,1.055,1.055,0,0,1-.155-.691v-.3a.966.966,0,0,1,.078-.32c.039-.12.078-.2.117-.32a.943.943,0,0,1,.233-.359l3.725-5.91H439.66a.362.362,0,0,1-.349-.279,2.5,2.5,0,0,1-.116-.879,2.366,2.366,0,0,1,.039-.559,2.672,2.672,0,0,1,.078-.359.4.4,0,0,1,.155-.2.343.343,0,0,1,.194-.04h6.054a.562.562,0,0,1,.271.04c.078.04.117.08.194.12l.116.239a1.26,1.26,0,0,1,.039.4V39.63a1.3,1.3,0,0,1-.039.406.789.789,0,0,1-.078.325c-.039.122-.078.2-.116.325a1.678,1.678,0,0,1-.194.366l-3.686,6.054H446.1a.336.336,0,0,1,.194.041.312.312,0,0,1,.156.163.847.847,0,0,1,.078.366A2.441,2.441,0,0,1,446.567,48.244Z" transform="translate(-269.929 -23.945)" fill="#fff"/>
        <path id="Pfad_20" data-name="Pfad 20" d="M471.85,43.15a.983.983,0,0,1-.232.733.815.815,0,0,1-.618.232h-5.983a3.658,3.658,0,0,0,.154,1.158,3.226,3.226,0,0,0,.463.888,2.141,2.141,0,0,0,.849.54,3.95,3.95,0,0,0,1.235.193,5.976,5.976,0,0,0,1.274-.116c.386-.077.695-.154.965-.232a4.139,4.139,0,0,0,.656-.232,1.171,1.171,0,0,1,.425-.116c.077,0,.116,0,.154.039a.534.534,0,0,1,.116.154,2.453,2.453,0,0,1,.077.27v.888a.85.85,0,0,1-.039.309.3.3,0,0,1-.077.193c-.039.039-.077.116-.116.154a1.677,1.677,0,0,1-.386.193,6.592,6.592,0,0,1-.811.27c-.347.077-.695.154-1.12.232a7.712,7.712,0,0,1-1.351.077,6.964,6.964,0,0,1-2.316-.347,4.262,4.262,0,0,1-1.66-1,4.616,4.616,0,0,1-1-1.7,7.661,7.661,0,0,1-.309-2.393,7.369,7.369,0,0,1,.348-2.355,4.963,4.963,0,0,1,1-1.776,4.224,4.224,0,0,1,1.583-1.119,5.211,5.211,0,0,1,2.123-.386,5.825,5.825,0,0,1,2.123.347,3.54,3.54,0,0,1,1.428,1,3.492,3.492,0,0,1,.811,1.544,7.767,7.767,0,0,1,.27,1.93l-.039.425Zm-2.87-.579a2.774,2.774,0,0,0-.463-1.853,1.769,1.769,0,0,0-1.544-.656,2.333,2.333,0,0,0-.926.193,1.766,1.766,0,0,0-.656.54,2.629,2.629,0,0,0-.386.811,3.881,3.881,0,0,0-.154.965Z" transform="translate(-284.173 -23.27)" fill="#fff"/>
        <path id="Pfad_21" data-name="Pfad 21" d="M502.65,48.581a.324.324,0,0,1-.085.212.652.652,0,0,1-.254.169,1.3,1.3,0,0,1-.465.085c-.212,0-.423.042-.719.042a4.1,4.1,0,0,1-.762-.042,1.3,1.3,0,0,1-.465-.085.388.388,0,0,1-.254-.169c-.042-.085-.085-.127-.085-.212V42.967a4.32,4.32,0,0,0-.116-1.119,1.907,1.907,0,0,0-.309-.695,1.445,1.445,0,0,0-.5-.463,1.47,1.47,0,0,0-.733-.154,1.852,1.852,0,0,0-1.081.386,6.1,6.1,0,0,0-1.12,1.119V48.61a.286.286,0,0,1-.075.188.579.579,0,0,1-.225.15,1.157,1.157,0,0,1-.413.075c-.188,0-.375.037-.638.037a3.053,3.053,0,0,1-.638-.037,1.158,1.158,0,0,1-.413-.075.345.345,0,0,1-.225-.15A.286.286,0,0,1,493,48.61V38.718a.286.286,0,0,1,.038-.19.831.831,0,0,1,.19-.152.956.956,0,0,1,.38-.076c.152,0,.342-.038.569-.038a2.5,2.5,0,0,1,.57.038.761.761,0,0,1,.342.076.381.381,0,0,1,.19.152.285.285,0,0,1,.038.19v1.131a5.547,5.547,0,0,1,1.632-1.291,3.59,3.59,0,0,1,1.747-.418,3.746,3.746,0,0,1,1.671.342,2.82,2.82,0,0,1,1.1.873,3.681,3.681,0,0,1,.608,1.291,8.137,8.137,0,0,1,.19,1.822l.386,6.135Z" transform="translate(-303.084 -23.417)" fill="#fff"/>
        <path id="Pfad_22" data-name="Pfad 22" d="M527.639,44.2a3.661,3.661,0,0,1-.073.759c-.037.16-.073.32-.146.359a1.006,1.006,0,0,1-.292.2,2.828,2.828,0,0,1-.438.16,2.277,2.277,0,0,1-.548.08,2.863,2.863,0,0,1-.584.04,4.441,4.441,0,0,1-1.351-.2,2.378,2.378,0,0,1-.949-.679,2.847,2.847,0,0,1-.548-1.118,6.876,6.876,0,0,1-.183-1.637V36.933H521.38c-.148,0-.222-.08-.3-.279a3.78,3.78,0,0,1-.074-1.438.85.85,0,0,1,.074-.359.4.4,0,0,1,.148-.2c.037-.04.111-.04.185-.04h1.11V32.341a.319.319,0,0,1,.074-.2.342.342,0,0,1,.222-.16,1.073,1.073,0,0,1,.407-.08c.185,0,.37-.04.629-.04a3.322,3.322,0,0,1,.666.04,1.073,1.073,0,0,1,.407.08.34.34,0,0,1,.222.16.442.442,0,0,1,.074.2v2.276h2.008c.073,0,.146,0,.183.04a.88.88,0,0,1,.146.2.856.856,0,0,1,.073.359c0,.16.037.319.037.559a2.484,2.484,0,0,1-.11.879c-.073.16-.182.279-.292.279H525.23v4.792a2.266,2.266,0,0,0,.255,1.238.859.859,0,0,0,.84.4,1.039,1.039,0,0,0,.365-.04c.11-.04.219-.04.292-.08a.486.486,0,0,1,.219-.08.258.258,0,0,1,.146-.04.127.127,0,0,1,.11.04.213.213,0,0,1,.073.16c.037.08.037.2.073.319A2.509,2.509,0,0,1,527.639,44.2Z" transform="translate(-320.259 -19.563)" fill="#fff"/>
        <path id="Pfad_23" data-name="Pfad 23" d="M550.176,39.583a3.362,3.362,0,0,1-.038.656.977.977,0,0,1-.076.386.86.86,0,0,1-.114.193.284.284,0,0,1-.191.039.34.34,0,0,1-.191-.039c-.077-.039-.153-.039-.229-.077s-.191-.039-.305-.077a1.045,1.045,0,0,0-.343-.039,1.9,1.9,0,0,0-.458.077,1.6,1.6,0,0,0-.458.309,2.287,2.287,0,0,0-.5.54,7.339,7.339,0,0,0-.573.811v6.123a.286.286,0,0,1-.075.188.579.579,0,0,1-.225.15,1.157,1.157,0,0,1-.413.075c-.188,0-.375.037-.638.037a3.053,3.053,0,0,1-.638-.037,1.158,1.158,0,0,1-.413-.075.345.345,0,0,1-.225-.15.286.286,0,0,1-.075-.188V38.656a.294.294,0,0,1,.038-.193.833.833,0,0,1,.19-.154.94.94,0,0,1,.38-.077c.152,0,.342-.039.569-.039a2.478,2.478,0,0,1,.57.039.747.747,0,0,1,.342.077.38.38,0,0,1,.19.154.293.293,0,0,1,.038.193v1.235a11.143,11.143,0,0,1,.722-.926,7.742,7.742,0,0,1,.645-.579,2.26,2.26,0,0,1,.608-.309A1.646,1.646,0,0,1,548.9,38h.286c.114,0,.229.039.343.039.114.039.229.039.305.077a.824.824,0,0,1,.191.116c.038.039.076.077.076.116a1.687,1.687,0,0,1,.038.193c0,.077.038.193.038.347Z" transform="translate(-334.397 -23.331)" fill="#fff"/>
        <path id="Pfad_24" data-name="Pfad 24" d="M570.514,48.8a.233.233,0,0,1-.118.232.485.485,0,0,1-.353.116,3.458,3.458,0,0,1-.707.039,3.683,3.683,0,0,1-.746-.039.871.871,0,0,1-.314-.116.281.281,0,0,1-.078-.232v-.772a4.079,4.079,0,0,1-1.413,1,4.234,4.234,0,0,1-1.766.347,5.5,5.5,0,0,1-1.453-.193,3.563,3.563,0,0,1-1.138-.618,2.711,2.711,0,0,1-.746-1,3.5,3.5,0,0,1,.079-2.9,2.616,2.616,0,0,1,1.021-1.042,6.123,6.123,0,0,1,1.688-.618,13.782,13.782,0,0,1,2.355-.193h.988v-.579a4.73,4.73,0,0,0-.078-.811,1.389,1.389,0,0,0-.313-.579,1.481,1.481,0,0,0-.588-.347,3,3,0,0,0-.9-.116,4.118,4.118,0,0,0-1.253.154c-.353.116-.7.232-.979.347a5.918,5.918,0,0,0-.7.347.944.944,0,0,1-.47.154.56.56,0,0,1-.235-.077.354.354,0,0,1-.157-.232.906.906,0,0,1-.078-.347,1.844,1.844,0,0,1-.039-.463,2.012,2.012,0,0,1,.039-.54,1,1,0,0,1,.2-.347,1.649,1.649,0,0,1,.548-.347c.274-.116.588-.232.9-.347a9.737,9.737,0,0,1,1.136-.27,7.313,7.313,0,0,1,1.292-.116,7.454,7.454,0,0,1,2,.232,3.513,3.513,0,0,1,1.37.695,2.788,2.788,0,0,1,.783,1.2,5.835,5.835,0,0,1,.235,1.737V48.8Zm-2.7-4.439h-1.042a4.873,4.873,0,0,0-1.158.116,2.022,2.022,0,0,0-.772.309,1.2,1.2,0,0,0-.425.463,1.643,1.643,0,0,0-.154.656,1.174,1.174,0,0,0,.386.965,1.581,1.581,0,0,0,1.081.347,2.182,2.182,0,0,0,1.081-.309,5.011,5.011,0,0,0,1-.888V44.36Z" transform="translate(-345.084 -23.516)" fill="#fff"/>
        <path id="Pfad_25" data-name="Pfad 25" d="M594.7,41.5a.287.287,0,0,1-.075.188.579.579,0,0,1-.225.15,1.158,1.158,0,0,1-.413.075c-.187,0-.375.038-.638.038a3.021,3.021,0,0,1-.638-.038,1.158,1.158,0,0,1-.413-.075.345.345,0,0,1-.225-.15A.287.287,0,0,1,592,41.5V27.353a.286.286,0,0,1,.075-.188.345.345,0,0,1,.225-.15,1.157,1.157,0,0,1,.413-.075,3.241,3.241,0,0,1,.638-.037,3.053,3.053,0,0,1,.638.037c.188.038.3.038.413.075a.345.345,0,0,1,.225.15c.038.075.075.112.075.188Z" transform="translate(-363.869 -16.518)" fill="#fff"/>
        <path id="Pfad_26" data-name="Pfad 26" d="M614.812,43.4a.623.623,0,0,1-.091.733.545.545,0,0,1-.618.137h-6.022a3.9,3.9,0,0,0,.154,1.253,3.229,3.229,0,0,0,.463.888,2.141,2.141,0,0,0,.849.54,3.95,3.95,0,0,0,1.235.193,5.975,5.975,0,0,0,1.274-.116c.386-.077.695-.154.965-.232a4.137,4.137,0,0,0,.656-.232,1.172,1.172,0,0,1,.425-.116c.077,0,.116,0,.154.039a.534.534,0,0,1,.116.154.8.8,0,0,1,.053.27V47.8a.516.516,0,0,1-.014.309.3.3,0,0,1-.077.193c-.039.039-.077.116-.116.154a1.676,1.676,0,0,1-.386.193,6.585,6.585,0,0,1-.811.27c-.347.077-.695.154-1.12.232a7.711,7.711,0,0,1-1.351.077,6.965,6.965,0,0,1-2.316-.347,4.263,4.263,0,0,1-1.66-1,4.615,4.615,0,0,1-1-1.7,7.656,7.656,0,0,1-.309-2.393,7.371,7.371,0,0,1,.347-2.355,4.964,4.964,0,0,1,1-1.776,4.224,4.224,0,0,1,1.583-1.119,5.211,5.211,0,0,1,2.123-.386,5.825,5.825,0,0,1,2.123.347,3.54,3.54,0,0,1,1.428,1,3.491,3.491,0,0,1,.811,1.544,4.218,4.218,0,0,1,.13,1.93V43.4Zm-2.562-.674a2.773,2.773,0,0,0-.463-1.853,1.769,1.769,0,0,0-1.544-.656,2.332,2.332,0,0,0-.926.193,1.766,1.766,0,0,0-.656.54,2.628,2.628,0,0,0-.386.811,3.881,3.881,0,0,0-.154.965Z" transform="translate(-372.013 -23.421)" fill="#fff"/>
        <path id="Pfad_27" data-name="Pfad 27" d="M662.014,42.734a.4.4,0,0,0-.245.193.841.841,0,0,1-.193.154.771.771,0,0,1-.347.077c-.154,0-.347.039-.54.039a2.556,2.556,0,0,1-.579-.039.772.772,0,0,1-.347-.077.385.385,0,0,1-.193-.154c-.038-.039-.256-.193-.256-.193V41.653a8.416,8.416,0,0,1-1.4,1.274,3.667,3.667,0,0,1-1.853.463,4.028,4.028,0,0,1-1.892-.425,4.571,4.571,0,0,1-1.274-1.158,4.969,4.969,0,0,1-.695-1.737,11.874,11.874,0,0,1-.232-2.084,8.778,8.778,0,0,1,.27-2.355,5.393,5.393,0,0,1,.811-1.776,3.16,3.16,0,0,1,1.351-1.119,4.084,4.084,0,0,1,1.853-.386,3.32,3.32,0,0,1,1.505.347c.463.232,1.558,1,1.558,1V28.213a.287.287,0,0,1,.075-.188.345.345,0,0,1,.226-.15,1.157,1.157,0,0,1,.413-.075,3.243,3.243,0,0,1,.638-.037,3.051,3.051,0,0,1,.638.037c.15.038.3.038.413.075a.345.345,0,0,1,.225.15c.037.075.075.112.075.188v14.52Zm-3.088-6.6a5.459,5.459,0,0,0-1.158-1.158,1.822,1.822,0,0,0-1.158-.386,1.539,1.539,0,0,0-.926.27,1.908,1.908,0,0,0-.618.733,4.412,4.412,0,0,0-.347,1,5.9,5.9,0,0,0-.116,1.158,6,6,0,0,0,.116,1.2,6.69,6.69,0,0,0,.309,1.042,1.908,1.908,0,0,0,.618.733,1.507,1.507,0,0,0,.965.27,2.279,2.279,0,0,0,.54-.077,1.771,1.771,0,0,0,.54-.27,2.24,2.24,0,0,0,.579-.5c.193-.193.425-.463.656-.733Z" transform="translate(-400.686 -17.046)" fill="#fff"/>
        <path id="Pfad_28" data-name="Pfad 28" d="M692.812,44.6a.623.623,0,0,1-.091.733.442.442,0,0,1-.617.059h-6.022a4.112,4.112,0,0,0,.154,1.33,3.228,3.228,0,0,0,.463.888,2.142,2.142,0,0,0,.849.54,3.951,3.951,0,0,0,1.235.193,5.975,5.975,0,0,0,1.274-.116c.386-.077.695-.154.965-.232a4.134,4.134,0,0,0,.656-.232,1.172,1.172,0,0,1,.425-.116c.077,0,.116,0,.154.039a.533.533,0,0,1,.116.154.8.8,0,0,1,.053.27V49a.516.516,0,0,1-.014.309.3.3,0,0,1-.077.193c-.039.039-.077.116-.116.154a1.681,1.681,0,0,1-.386.193c-.232.077-.5.193-.811.27-.347.077-.695.154-1.12.232a7.711,7.711,0,0,1-1.351.077,6.963,6.963,0,0,1-2.316-.347,4.261,4.261,0,0,1-1.66-1,4.145,4.145,0,0,1-1-1.7,7.658,7.658,0,0,1-.309-2.393,7.369,7.369,0,0,1,.347-2.355,4.971,4.971,0,0,1,1-1.776,4.225,4.225,0,0,1,1.583-1.119,5.211,5.211,0,0,1,2.123-.386,5.825,5.825,0,0,1,2.123.347,3.54,3.54,0,0,1,1.428,1,3.492,3.492,0,0,1,.811,1.544,3.722,3.722,0,0,1,.13,1.93V44.6Zm-2.562-.751a2.773,2.773,0,0,0-.463-1.853,1.769,1.769,0,0,0-1.544-.656,2.332,2.332,0,0,0-.926.193,1.765,1.765,0,0,0-.656.54,1.976,1.976,0,0,0-.386.811,3.883,3.883,0,0,0-.154.965Z" transform="translate(-419.903 -24.158)" fill="#fff"/>
        <path id="Pfad_29" data-name="Pfad 29" d="M720.689,47.15a3.556,3.556,0,0,1-.309,1.467,2.969,2.969,0,0,1-.888,1.081,4,4,0,0,1-1.351.656,6.022,6.022,0,0,1-1.7.232,8.22,8.22,0,0,1-1.042-.077,5.075,5.075,0,0,1-.888-.193,2.1,2.1,0,0,1-.656-.27c-.154-.116-.309-.154-.386-.232a.746.746,0,0,1-.193-.347,3.263,3.263,0,0,1-.077-.733,1.74,1.74,0,0,1,.039-.5c.039-.116.039-.232.077-.309a.531.531,0,0,1,.116-.154.232.232,0,0,1,.154-.039.628.628,0,0,1,.347.154c.154.077.347.193.579.309a3.952,3.952,0,0,0,.811.309,4.279,4.279,0,0,0,1.081.154,3.335,3.335,0,0,0,.634-.073,1.248,1.248,0,0,0,.491-.211.9.9,0,0,0,.342-.373,1.068,1.068,0,0,0,.116-.5.948.948,0,0,0-.193-.579,2.026,2.026,0,0,0-.54-.425,7.505,7.505,0,0,0-.772-.347c-.309-.116-.579-.232-.888-.347a9.29,9.29,0,0,1-.888-.425,3.673,3.673,0,0,1-.772-.579,2.674,2.674,0,0,1-.54-.849,2.891,2.891,0,0,1-.193-1.2,3.077,3.077,0,0,1,.27-1.312,2.911,2.911,0,0,1,.811-1,3.965,3.965,0,0,1,1.274-.656,5.564,5.564,0,0,1,1.66-.232,6.337,6.337,0,0,1,.888.077c.309.039.54.116.772.154a2.012,2.012,0,0,1,.579.232c.154.077.27.154.347.193s.116.116.154.154.039.116.077.193c0,.077.039.154.039.27v.926c0,.116-.039.232-.039.309a.535.535,0,0,1-.116.154c-.039.039-.077.039-.154.039a.771.771,0,0,1-.309-.116,3.763,3.763,0,0,0-.54-.232c-.193-.077-.463-.154-.733-.232a3.31,3.31,0,0,0-1.583-.039.88.88,0,0,0-.463.232.839.839,0,0,0-.27.347.762.762,0,0,0-.077.425.948.948,0,0,0,.193.579,2.029,2.029,0,0,0,.54.425c.232.116.5.232.772.347.309.116.579.232.888.347a9.279,9.279,0,0,1,.888.425,2.893,2.893,0,0,1,.772.579,2.141,2.141,0,0,1,.54.849C720.65,46.34,720.689,46.726,720.689,47.15Z" transform="translate(-438.284 -24.281)" fill="#fff"/>
        <path id="Pfad_30" data-name="Pfad 30" d="M762.836,31.062a2.591,2.591,0,0,1-.036.569,1.327,1.327,0,0,1-.073.406.931.931,0,0,1-.11.2.2.2,0,0,1-.146.041,1.462,1.462,0,0,1-.438-.2c-.219-.122-.475-.285-.8-.447a6.177,6.177,0,0,0-1.205-.447,6.276,6.276,0,0,0-1.607-.2,4.308,4.308,0,0,0-1.789.366,3.972,3.972,0,0,0-1.351,1.057,5.3,5.3,0,0,0-.876,1.666,6.774,6.774,0,0,0-.292,2.154A8.488,8.488,0,0,0,754.4,38.5a5.3,5.3,0,0,0,.876,1.666,3.728,3.728,0,0,0,1.314,1.016,3.962,3.962,0,0,0,1.716.325,3.516,3.516,0,0,0,.913-.122,3.162,3.162,0,0,0,.84-.366V37.523H757.5c-.109,0-.219-.081-.292-.244a2.559,2.559,0,0,1-.11-.894,2.224,2.224,0,0,1,.036-.528.884.884,0,0,1,.073-.366.9.9,0,0,1,.109-.2.264.264,0,0,1,.183-.081h4.565a.628.628,0,0,1,.292.081.982.982,0,0,1,.219.2.852.852,0,0,1,.146.325,1.388,1.388,0,0,1,.037.406V42.2a1.489,1.489,0,0,1-.11.61.776.776,0,0,1-.438.406c-.219.081-.511.2-.84.325a9.616,9.616,0,0,1-1.022.284,10.2,10.2,0,0,1-1.1.163,9.9,9.9,0,0,1-1.1.041,7.128,7.128,0,0,1-2.885-.528,6.135,6.135,0,0,1-2.154-1.5,6.473,6.473,0,0,1-1.351-2.4,10.641,10.641,0,0,1-.475-3.21,10.524,10.524,0,0,1,.511-3.332,7.154,7.154,0,0,1,1.424-2.519,6.108,6.108,0,0,1,2.227-1.585,7.372,7.372,0,0,1,2.885-.528,9.662,9.662,0,0,1,1.607.122,7.135,7.135,0,0,1,1.241.325,6.711,6.711,0,0,1,.877.406c.219.163.4.284.511.366a1.207,1.207,0,0,1,.219.447A8.381,8.381,0,0,1,762.836,31.062Z" transform="translate(-461.675 -17.45)" fill="#fff"/>
        <path id="Pfad_31" data-name="Pfad 31" d="M799.268,40a5.252,5.252,0,0,1-.193,1.39,4.1,4.1,0,0,1-.579,1.081,3.589,3.589,0,0,1-.888.811,6.149,6.149,0,0,1-1.119.579,5.006,5.006,0,0,1-1.312.309,9.661,9.661,0,0,1-1.544.116h-3.783a.876.876,0,0,1-.618-.232.944.944,0,0,1-.232-.695V30.926a.944.944,0,0,1,.232-.695.877.877,0,0,1,.618-.232h3.59a9.279,9.279,0,0,1,2.239.232,5.172,5.172,0,0,1,1.544.656,3.325,3.325,0,0,1,.965,1.119,3.582,3.582,0,0,1,.347,1.621,3.894,3.894,0,0,1-.116.965,3.379,3.379,0,0,1-.386.849,3.287,3.287,0,0,1-.618.656,2.994,2.994,0,0,1-.849.463,3.85,3.85,0,0,1,1.12.386,3.226,3.226,0,0,1,.888.695,3.678,3.678,0,0,1,.618,1C799.191,39.071,799.268,39.535,799.268,40Zm-3.706-5.792a2.582,2.582,0,0,0-.121-.8,1.59,1.59,0,0,0-.4-.6,1.856,1.856,0,0,0-.684-.362,4.173,4.173,0,0,0-1.126-.12H791.7v3.86h1.689a2.474,2.474,0,0,0,1.045-.161,1.838,1.838,0,0,0,.644-.442,2.52,2.52,0,0,0,.4-.643A3.617,3.617,0,0,0,795.562,34.206Zm.831,6.125a2.242,2.242,0,0,0-.162-.93,1.741,1.741,0,0,0-.526-.687,2.828,2.828,0,0,0-.849-.445,4.146,4.146,0,0,0-1.334-.162H791.7v4.246h2.184a3.963,3.963,0,0,0,1.052-.121,2.015,2.015,0,0,0,.768-.4,1.953,1.953,0,0,0,.486-.647A1.883,1.883,0,0,0,796.393,40.331Z" transform="translate(-484.824 -18.42)" fill="#fff"/>
        <path id="Pfad_32" data-name="Pfad 32" d="M825.64,44.458a.774.774,0,0,1-.154.309.692.692,0,0,1-.27.193,1.789,1.789,0,0,1-.54.077h-1.66a2.374,2.374,0,0,1-.541-.039,2.465,2.465,0,0,1-.347-.077l-.232-.116c-.077-.039-.116-.116-.155-.154a.414.414,0,0,1-.077-.232l-4.246-12.661a2.825,2.825,0,0,1-.154-.618c0-.154,0-.27.116-.347a1.075,1.075,0,0,1,.463-.154c.232,0,.54-.039.927-.039a4.7,4.7,0,0,1,.811.039,2.88,2.88,0,0,1,.425.077.354.354,0,0,1,.232.154,1.874,1.874,0,0,1,.116.27l3.474,11.04h0l3.4-10.963a2.661,2.661,0,0,1,.116-.309.4.4,0,0,1,.232-.193,1.44,1.44,0,0,1,.463-.077c.193,0,.463-.039.811-.039a4,4,0,0,1,.772.039.727.727,0,0,1,.386.154c.077.077.077.193.077.347-.039.154-.077.347-.154.618Z" transform="translate(-502.177 -18.788)" fill="#fff"/>
        <g id="Gruppe_10" data-name="Gruppe 10" transform="translate(5.957 6.407)">
          <g id="Gruppe_9" data-name="Gruppe 9" transform="translate(0)">
            <path id="Pfad_9" data-name="Pfad 9" d="M24.87,30.959c-1.132,2.867-2.452,6.525-2.942,8.147a.84.84,0,0,1-.49.151,1.09,1.09,0,0,1-.528-.151A39.725,39.725,0,0,0,19.59,35L14.611,21.756c-.792-2.112-1.056-2.527-2.188-2.791l-.679-.151c-.189-.226-.189-.792.075-.868,1.094.075,2.339.075,3.432.075,1.282,0,2.225-.038,3.734-.075a.616.616,0,0,1,.038.905l-.717.189c-.641.151-.868.3-.868.566a25.878,25.878,0,0,0,1.4,4.187l2.037,5.582c.528,1.4,1.282,3.282,1.546,4,1.546-3.961,3.244-8.3,4.753-12.56.453-1.245.377-1.509-.49-1.735l-.83-.226c-.189-.264-.189-.754.075-.905,1.169.075,2.112.075,3.055.075,1.018,0,1.961-.038,2.753-.075.226.151.189.641.075.905L31.094,19a2.388,2.388,0,0,0-1.773,1.282c-.792,1.509-1.622,3.621-2.9,6.789Z" transform="translate(-11.611 -16.922)" fill="#fff"/>
            <path id="Pfad_10" data-name="Pfad 10" d="M78.034,16.152c1.9,0,2.775-.076,3.231-.114a.436.436,0,0,1,.266.494,73.944,73.944,0,0,0-4.372,6.842l-4.637,7.716a29.687,29.687,0,0,0-2.281,4.143c0,.342.418.456.912.456.57.038,1.216.076,3.307.076,2.623,0,4.067-.152,4.942-.722A6.566,6.566,0,0,0,81.493,31.7c.266-.19.836-.076.912.266a16.6,16.6,0,0,1-1.368,5.169c-.76-.038-1.6-.076-2.471-.076-.874-.038-1.786-.038-2.851-.038h-7.45c-1.559,0-2.471.038-3,.076a.412.412,0,0,1-.19-.456c.418-.608,2.015-2.813,3.269-4.9l6.348-10.491a22.85,22.85,0,0,0,1.977-3.611c0-.228-.418-.228-.988-.228H72.218c-2.167,0-3.535.266-4.219,1.064a8.211,8.211,0,0,0-1.33,2.395.629.629,0,0,1-.912-.228c.418-1.824.912-3.573,1.216-5.322a.4.4,0,0,1,.494,0c.19.722.76.8,3,.8C70.47,16.152,78.034,16.152,78.034,16.152Z" transform="translate(-44.901 -15.23)" fill="#fff"/>
            <path id="Pfad_11" data-name="Pfad 11" d="M130.509,34.43c0,1.119.154,1.967.694,2.238.077.116.077.386-.038.463a4.538,4.538,0,0,0-1.389.27,24.94,24.94,0,0,1-5.632.849c-3.472,0-6.751-1.041-8.95-3.549a11.331,11.331,0,0,1-2.546-7.368,11.614,11.614,0,0,1,2.662-7.561c2.044-2.392,5.207-3.781,9.258-3.781a21.578,21.578,0,0,1,3.858.463,10.634,10.634,0,0,0,1.852.27c.039.964.232,2.585.386,5.092a.607.607,0,0,1-.926.077,5.332,5.332,0,0,0-5.594-4.668c-5.092,0-7.561,4.089-7.561,9.528a12.281,12.281,0,0,0,2.083,7.368,7.15,7.15,0,0,0,5.594,2.739c1.389,0,2.237-.27,2.584-.733a4.043,4.043,0,0,0,.27-2.006V32.965c0-2.276-.038-2.469-1.967-2.816l-1.041-.193a.748.748,0,0,1,.038-.926c1.119.077,2.508.077,4.513.077,1.311,0,2.276-.038,3.549-.077a.63.63,0,0,1,.077.926l-.54.077c-1.08.154-1.235.463-1.235,2.392V34.43Z" transform="translate(-74.538 -15.704)" fill="#fff"/>
          </g>
          <rect id="Rechteck_3" data-name="Rechteck 3" width="4.188" height="20.941" transform="translate(64.026 1.235)" fill="#fff"/>
        </g>
        <g id="Rechteck_4" data-name="Rechteck 4" transform="translate(0 -0.422)" fill="none" stroke="#fff" stroke-width="1">
          <rect width="82" height="36" stroke="none"/>
          <rect x="0.5" y="0.5" width="81" height="35" fill="none"/>
        </g>
      </g>
    </g>
  </g>
</svg>
