<svg xmlns="http://www.w3.org/2000/svg" width="168.926" height="46.207" viewBox="0 0 168.926 46.207">
  <g id="logo_small" transform="translate(-100 -43)">
    <path id="Pfad_57" data-name="Pfad 57" d="M7.764-1.714a7.943,7.943,0,0,0,1.245-.1,8.06,8.06,0,0,0,.952-.2v1.86A4.445,4.445,0,0,1,8.8.168,8.745,8.745,0,0,1,7.412.293q-4.658,0-4.658-4.907v-9.551H.454v-1.172l2.3-1.011,1.025-3.428H5.186v3.721H9.844v1.89H5.186v9.448A3.25,3.25,0,0,0,5.874-2.49,2.4,2.4,0,0,0,7.764-1.714ZM19.951.293a7.376,7.376,0,0,1-5.618-2.168A8.393,8.393,0,0,1,12.275-7.9a9.308,9.308,0,0,1,1.912-6.167,6.35,6.35,0,0,1,5.134-2.285A6.055,6.055,0,0,1,24.1-14.363a7.607,7.607,0,0,1,1.758,5.237v1.538H14.795A6.364,6.364,0,0,0,16.223-3.3a4.94,4.94,0,0,0,3.816,1.465,12.931,12.931,0,0,0,5.127-1.084V-.747a12.868,12.868,0,0,1-2.439.8A13.706,13.706,0,0,1,19.951.293Zm-.659-14.6a3.971,3.971,0,0,0-3.083,1.26,5.807,5.807,0,0,0-1.355,3.486h8.394a5.346,5.346,0,0,0-1.025-3.523A3.609,3.609,0,0,0,19.292-14.312Zm18.032-2.036a9.515,9.515,0,0,1,1.919.176l-.337,2.256a8.283,8.283,0,0,0-1.758-.22,4.279,4.279,0,0,0-3.333,1.582,5.769,5.769,0,0,0-1.384,3.94V0H30V-16.055h2.007l.278,2.974H32.4A7.057,7.057,0,0,1,34.556-15.5,4.847,4.847,0,0,1,37.324-16.348ZM62.71,0V-10.444a4.335,4.335,0,0,0-.82-2.878,3.173,3.173,0,0,0-2.549-.959,4.115,4.115,0,0,0-3.354,1.3A6.2,6.2,0,0,0,54.9-8.965V0H52.471V-10.444a4.335,4.335,0,0,0-.82-2.878,3.192,3.192,0,0,0-2.563-.959,3.971,3.971,0,0,0-3.347,1.37,7.412,7.412,0,0,0-1.062,4.49V0H42.246V-16.055h1.978l.4,2.2h.117a4.779,4.779,0,0,1,1.941-1.831,5.93,5.93,0,0,1,2.805-.659q3.765,0,4.922,2.725h.117a5.119,5.119,0,0,1,2.08-1.992,6.454,6.454,0,0,1,3.105-.732,5.436,5.436,0,0,1,4.08,1.4,6.258,6.258,0,0,1,1.355,4.475V0Zm9.873,0H70.151V-16.055h2.432ZM69.946-20.405a1.615,1.615,0,0,1,.41-1.223,1.433,1.433,0,0,1,1.025-.388,1.433,1.433,0,0,1,1.011.4,1.586,1.586,0,0,1,.425,1.216,1.611,1.611,0,0,1-.425,1.223,1.419,1.419,0,0,1-1.011.4,1.4,1.4,0,0,1-1.025-.4A1.645,1.645,0,0,1,69.946-20.405ZM88.726,0V-10.386a4.19,4.19,0,0,0-.894-2.93,3.64,3.64,0,0,0-2.8-.967,4.614,4.614,0,0,0-3.691,1.362q-1.172,1.362-1.172,4.5V0H77.739V-16.055h1.978l.4,2.2h.117A4.965,4.965,0,0,1,82.324-15.7a6.806,6.806,0,0,1,3-.652,6.1,6.1,0,0,1,4.365,1.4,5.954,5.954,0,0,1,1.465,4.475V0ZM110.01-8.042a8.857,8.857,0,0,1-1.978,6.13,6.965,6.965,0,0,1-5.464,2.2A7.237,7.237,0,0,1,98.745-.718a6.671,6.671,0,0,1-2.578-2.9,10.108,10.108,0,0,1-.908-4.424,8.843,8.843,0,0,1,1.963-6.116,6.942,6.942,0,0,1,5.449-2.19,6.792,6.792,0,0,1,5.354,2.241A8.818,8.818,0,0,1,110.01-8.042Zm-12.231,0a7.62,7.62,0,0,0,1.23,4.688,4.271,4.271,0,0,0,3.618,1.611,4.3,4.3,0,0,0,3.625-1.6,7.581,7.581,0,0,0,1.238-4.695,7.459,7.459,0,0,0-1.238-4.651,4.349,4.349,0,0,0-3.655-1.589,4.28,4.28,0,0,0-3.6,1.567A7.543,7.543,0,0,0,97.778-8.042ZM116.7,0h-2.432V-22.793H116.7Zm19.014-8.042a8.857,8.857,0,0,1-1.978,6.13,6.965,6.965,0,0,1-5.464,2.2,7.237,7.237,0,0,1-3.823-1.011,6.671,6.671,0,0,1-2.578-2.9,10.108,10.108,0,0,1-.908-4.424,8.843,8.843,0,0,1,1.963-6.116,6.942,6.942,0,0,1,5.449-2.19,6.792,6.792,0,0,1,5.354,2.241A8.818,8.818,0,0,1,135.718-8.042Zm-12.231,0a7.62,7.62,0,0,0,1.23,4.688,4.271,4.271,0,0,0,3.618,1.611,4.3,4.3,0,0,0,3.625-1.6A7.581,7.581,0,0,0,133.2-8.042a7.459,7.459,0,0,0-1.238-4.651,4.349,4.349,0,0,0-3.655-1.589,4.28,4.28,0,0,0-3.6,1.567A7.543,7.543,0,0,0,123.486-8.042Zm29.634-8.013v1.538l-2.974.352a5.112,5.112,0,0,1,.732,1.34,5.114,5.114,0,0,1,.322,1.868,4.746,4.746,0,0,1-1.611,3.765,6.5,6.5,0,0,1-4.424,1.406,7.367,7.367,0,0,1-1.348-.117,2.393,2.393,0,0,0-1.553,2.065,1.049,1.049,0,0,0,.542.974,3.959,3.959,0,0,0,1.86.315h2.842a6.364,6.364,0,0,1,4.006,1.1,3.817,3.817,0,0,1,1.4,3.193,4.559,4.559,0,0,1-2.139,4.065,11.447,11.447,0,0,1-6.24,1.4,8.525,8.525,0,0,1-4.856-1.172,3.784,3.784,0,0,1-1.707-3.311A3.718,3.718,0,0,1,138.911.19a4.774,4.774,0,0,1,2.637-1.45,2.544,2.544,0,0,1-1.033-.864,2.287,2.287,0,0,1-.417-1.362,2.585,2.585,0,0,1,.469-1.538A4.928,4.928,0,0,1,142.046-6.3a4.337,4.337,0,0,1-2.029-1.743,5.122,5.122,0,0,1-.784-2.812,5.2,5.2,0,0,1,1.582-4.065,6.459,6.459,0,0,1,4.482-1.428,8.151,8.151,0,0,1,2.271.293ZM140.317,2.7a2.179,2.179,0,0,0,1.1,1.978,6.063,6.063,0,0,0,3.149.674,8.788,8.788,0,0,0,4.534-.916,2.8,2.8,0,0,0,1.472-2.483,1.965,1.965,0,0,0-.806-1.809,6.257,6.257,0,0,0-3.032-.505h-2.915a3.84,3.84,0,0,0-2.578.791A2.826,2.826,0,0,0,140.317,2.7Zm1.318-13.608a3.269,3.269,0,0,0,.952,2.549,3.8,3.8,0,0,0,2.651.864q3.56,0,3.56-3.457,0-3.618-3.6-3.618a3.568,3.568,0,0,0-2.637.923A3.717,3.717,0,0,0,141.636-10.913Zm12.231-5.142h2.607L159.99-6.9a34.823,34.823,0,0,1,1.436,4.526h.117q.19-.747.8-2.556t3.977-11.125h2.607l-6.9,18.281a9.12,9.12,0,0,1-2.4,3.845,5.093,5.093,0,0,1-3.362,1.135,9.783,9.783,0,0,1-2.2-.249V5.01a8.476,8.476,0,0,0,1.8.176q2.5,0,3.574-2.812l.894-2.285Z" transform="translate(100 82)" fill="#fff"/>
    <g id="Gruppe_26" data-name="Gruppe 26" transform="translate(100.126 42.348)">
      <g id="Gruppe_11" data-name="Gruppe 11" transform="translate(-0.126 0.652)">
        <path id="Pfad_12" data-name="Pfad 12" d="M234.168,35.059a.361.361,0,0,1-.072.144.322.322,0,0,1-.126.09.834.834,0,0,1-.252.036h-.774a1.107,1.107,0,0,1-.252-.018.359.359,0,0,1-.162-.036l-.108-.054c-.036-.018-.054-.054-.072-.072a.256.256,0,0,1-.036-.108l-1.979-5.9a1.317,1.317,0,0,1-.072-.288c0-.072,0-.126.054-.162a.423.423,0,0,1,.216-.072c.108,0,.252-.018.432-.018a2.189,2.189,0,0,1,.378.018.482.482,0,0,1,.2.036.165.165,0,0,1,.108.072.884.884,0,0,1,.054.126L233.323,34h0l1.583-5.11a1.242,1.242,0,0,1,.054-.144.184.184,0,0,1,.108-.09.671.671,0,0,1,.216-.036c.09,0,.216-.018.378-.018a1.864,1.864,0,0,1,.36.018.338.338,0,0,1,.18.072c.036.036.036.09.036.162-.018.072-.036.162-.072.288Z" transform="translate(-188.851 -23.952)" fill="#fff"/>
        <path id="Pfad_13" data-name="Pfad 13" d="M267.7,40.347a.458.458,0,0,1-.108.342.38.38,0,0,1-.288.108h-2.789a1.706,1.706,0,0,0,.072.54,1.5,1.5,0,0,0,.216.414,1,1,0,0,0,.4.252,1.842,1.842,0,0,0,.576.09,2.785,2.785,0,0,0,.594-.054c.18-.036.324-.072.45-.108a1.927,1.927,0,0,0,.306-.108.546.546,0,0,1,.2-.054c.036,0,.054,0,.072.018a.249.249,0,0,1,.054.072,1.159,1.159,0,0,1,.036.126V42.4a.4.4,0,0,1-.018.144.137.137,0,0,1-.036.09c-.018.018-.036.054-.054.072a.78.78,0,0,1-.18.09,3.07,3.07,0,0,1-.378.126c-.162.036-.324.072-.522.108a3.594,3.594,0,0,1-.63.036,3.246,3.246,0,0,1-1.08-.162,1.987,1.987,0,0,1-.774-.468,2.151,2.151,0,0,1-.468-.792,3.569,3.569,0,0,1-.144-1.116,3.436,3.436,0,0,1,.162-1.1,2.314,2.314,0,0,1,.468-.828,1.969,1.969,0,0,1,.738-.522,2.429,2.429,0,0,1,.99-.18,2.715,2.715,0,0,1,.99.162,1.65,1.65,0,0,1,.666.468,1.627,1.627,0,0,1,.378.72,3.62,3.62,0,0,1,.126.9l-.018.2Zm-1.23-.27a1.293,1.293,0,0,0-.216-.864.824.824,0,0,0-.72-.306,1.087,1.087,0,0,0-.432.09.823.823,0,0,0-.306.252,1.224,1.224,0,0,0-.18.378,1.808,1.808,0,0,0-.072.45Z" transform="translate(-215.861 -31.578)" fill="#fff"/>
        <path id="Pfad_14" data-name="Pfad 14" d="M297.059,38.738a1.412,1.412,0,0,1-.02.306.417.417,0,0,1-.04.18.388.388,0,0,1-.059.09.161.161,0,0,1-.1.018.193.193,0,0,1-.1-.018c-.04-.018-.079-.018-.119-.036s-.1-.018-.158-.036a.6.6,0,0,0-.178-.018,1.081,1.081,0,0,0-.237.036.838.838,0,0,0-.237.144,1.121,1.121,0,0,0-.257.252,3.466,3.466,0,0,0-.3.378v2.854a.133.133,0,0,1-.035.087.27.27,0,0,1-.105.07.539.539,0,0,1-.192.035c-.087,0-.175.017-.3.017a1.423,1.423,0,0,1-.3-.017.54.54,0,0,1-.192-.035.161.161,0,0,1-.105-.07.133.133,0,0,1-.035-.087V38.306a.137.137,0,0,1,.018-.09.389.389,0,0,1,.089-.072.438.438,0,0,1,.177-.036c.071,0,.159-.018.265-.018a1.155,1.155,0,0,1,.266.018.349.349,0,0,1,.159.036.178.178,0,0,1,.089.072.137.137,0,0,1,.018.09v.576a5.209,5.209,0,0,1,.336-.432,3.618,3.618,0,0,1,.3-.27,1.053,1.053,0,0,1,.283-.144.768.768,0,0,1,.283-.036h.262c.059,0,.119.018.178.018.059.018.119.018.158.036a.438.438,0,0,1,.1.054c.02.018.04.036.04.054a.718.718,0,0,1,.02.09c0,.036.02.09.02.162Z" transform="translate(-241.119 -31.66)" fill="#fff"/>
        <path id="Pfad_15" data-name="Pfad 15" d="M319.57,31a4.091,4.091,0,0,1-.126,1.1,2.514,2.514,0,0,1-.378.828,1.537,1.537,0,0,1-.612.522,1.827,1.827,0,0,1-.846.18,2.984,2.984,0,0,1-.432-.036,1.368,1.368,0,0,1-.378-.144,2.186,2.186,0,0,1-.36-.252,3.4,3.4,0,0,1-.36-.36v.507a.133.133,0,0,1-.035.087.383.383,0,0,1-.087.07.437.437,0,0,1-.174.035c-.07,0-.157.017-.261.017a1.15,1.15,0,0,1-.261-.017.347.347,0,0,1-.157-.035.175.175,0,0,1-.087-.07.131.131,0,0,1-.017-.087V26.573a.133.133,0,0,1,.035-.087.16.16,0,0,1,.105-.07.54.54,0,0,1,.192-.035,1.512,1.512,0,0,1,.3-.017,1.423,1.423,0,0,1,.3.017c.087.018.14.018.192.035a.161.161,0,0,1,.105.07c.017.035.035.052.035.087v2.54c.108-.108.234-.216.342-.306a1.675,1.675,0,0,1,.342-.2,1.2,1.2,0,0,1,.36-.108,2.7,2.7,0,0,1,.4-.036,1.8,1.8,0,0,1,.863.2,1.842,1.842,0,0,1,.576.54,2.542,2.542,0,0,1,.324.81A4.508,4.508,0,0,1,319.57,31Zm-1.349.09a5.454,5.454,0,0,0-.036-.558,1.918,1.918,0,0,0-.144-.486.889.889,0,0,0-.288-.342.65.65,0,0,0-.432-.126,1.215,1.215,0,0,0-.252.036.825.825,0,0,0-.252.126,1.045,1.045,0,0,0-.27.234,2.868,2.868,0,0,0-.288.342v1.529a3.013,3.013,0,0,0,.522.54.835.835,0,0,0,.522.18.717.717,0,0,0,.432-.126,1.079,1.079,0,0,0,.288-.342,1.791,1.791,0,0,0,.162-.468C318.2,31.434,318.22,31.272,318.22,31.092Z" transform="translate(-258.341 -22.117)" fill="#fff"/>
        <path id="Pfad_16" data-name="Pfad 16" d="M351.318,43.268a.135.135,0,0,1-.018.09.392.392,0,0,1-.09.072.43.43,0,0,1-.162.036c-.054,0-.162.018-.27.018a1.191,1.191,0,0,1-.27-.018,1.148,1.148,0,0,1-.162-.036.18.18,0,0,1-.09-.072.134.134,0,0,1-.018-.09v-.524a2.6,2.6,0,0,1-.765.6,1.66,1.66,0,0,1-.8.2,1.7,1.7,0,0,1-.783-.16,1.5,1.5,0,0,1-.516-.409,1.726,1.726,0,0,1-.285-.6A3.863,3.863,0,0,1,347,41.5V38.659a.134.134,0,0,1,.035-.087.269.269,0,0,1,.105-.07.539.539,0,0,1,.192-.035c.088,0,.175-.017.3-.017a1.423,1.423,0,0,1,.3.017.539.539,0,0,1,.192.035.161.161,0,0,1,.105.07.134.134,0,0,1,.035.087v2.6a2.2,2.2,0,0,0,.053.552.823.823,0,0,0,.374.534.678.678,0,0,0,.338.071.855.855,0,0,0,.5-.178,3.507,3.507,0,0,0,.534-.517v-3.06s-.007-.072.011-.09a.277.277,0,0,1,.108-.072.555.555,0,0,1,.2-.036c.09,0,.18-.018.306-.018a1.46,1.46,0,0,1,.306.018.555.555,0,0,1,.2.036.165.165,0,0,1,.108.072c.018.018-.155.09-.155.09l.18,4.606Z" transform="translate(-284.583 -32.026)" fill="#fff"/>
        <path id="Pfad_17" data-name="Pfad 17" d="M382.5,43.007a.151.151,0,0,1-.039.1.3.3,0,0,1-.118.079.605.605,0,0,1-.217.039c-.1,0-.2.02-.335.02a1.911,1.911,0,0,1-.355-.02.607.607,0,0,1-.217-.039.181.181,0,0,1-.118-.079c-.02-.039-.039-.059-.039-.1V40.39a2.013,2.013,0,0,0-.054-.522.89.89,0,0,0-.144-.324.673.673,0,0,0-.234-.216.685.685,0,0,0-.342-.072.863.863,0,0,0-.5.18,2.842,2.842,0,0,0-.522.522V43.02a.133.133,0,0,1-.035.087.27.27,0,0,1-.105.07.539.539,0,0,1-.192.035c-.087,0-.175.017-.3.017a1.423,1.423,0,0,1-.3-.017.54.54,0,0,1-.192-.035.161.161,0,0,1-.1-.07A.133.133,0,0,1,378,43.02V38.409a.133.133,0,0,1,.018-.089.387.387,0,0,1,.089-.071.445.445,0,0,1,.177-.035c.071,0,.159-.018.265-.018a1.165,1.165,0,0,1,.266.018.355.355,0,0,1,.159.035.178.178,0,0,1,.089.071.133.133,0,0,1,.018.089v.527a2.586,2.586,0,0,1,.761-.6,1.673,1.673,0,0,1,.814-.195,1.746,1.746,0,0,1,.779.159,1.314,1.314,0,0,1,.513.407,1.716,1.716,0,0,1,.283.6,3.8,3.8,0,0,1,.089.849l.18,2.859Z" transform="translate(-310.006 -31.775)" fill="#fff"/>
        <path id="Pfad_18" data-name="Pfad 18" d="M413.087,33.427a.135.135,0,0,1-.018.09.393.393,0,0,1-.09.072.36.36,0,0,1-.162.036c-.072,0-.162.018-.252.018a1.192,1.192,0,0,1-.27-.018.359.359,0,0,1-.162-.036.18.18,0,0,1-.09-.072.137.137,0,0,1-.036-.09v-.5a3.146,3.146,0,0,1-.738.594,1.71,1.71,0,0,1-.864.216,1.877,1.877,0,0,1-.882-.2,2.13,2.13,0,0,1-.594-.54,2.314,2.314,0,0,1-.324-.81,5.543,5.543,0,0,1-.108-.972,4.086,4.086,0,0,1,.126-1.1,2.514,2.514,0,0,1,.378-.828,1.472,1.472,0,0,1,.63-.522,1.9,1.9,0,0,1,.864-.18,1.547,1.547,0,0,1,.7.162,2.375,2.375,0,0,1,.63.468V26.662s-.042-.072-.024-.09a.165.165,0,0,1,.108-.072.555.555,0,0,1,.2-.036c.09,0,.18-.018.306-.018a1.46,1.46,0,0,1,.306.018c.09.018.144.018.2.036a.165.165,0,0,1,.108.072c.018.036-.119.09-.119.09l.18,6.765Zm-1.259-3.077a2.546,2.546,0,0,0-.54-.54.849.849,0,0,0-.54-.18.717.717,0,0,0-.432.126.89.89,0,0,0-.288.342,2.058,2.058,0,0,0-.162.468,2.746,2.746,0,0,0-.054.54,2.794,2.794,0,0,0,.054.558,3.115,3.115,0,0,0,.144.486.889.889,0,0,0,.288.342.7.7,0,0,0,.45.126,1.062,1.062,0,0,0,.252-.036.826.826,0,0,0,.252-.126,1.044,1.044,0,0,0,.27-.234c.09-.09.2-.216.306-.342Z" transform="translate(-335.017 -22.185)" fill="#fff"/>
        <path id="Pfad_19" data-name="Pfad 19" d="M442.527,43.309a1.137,1.137,0,0,1-.018.265,1.272,1.272,0,0,1-.036.17.188.188,0,0,1-.073.095.157.157,0,0,1-.09.019h-3.021a.294.294,0,0,1-.217-.095.492.492,0,0,1-.072-.322V43.3a.45.45,0,0,1,.036-.149c.018-.056.036-.093.054-.149a.44.44,0,0,1,.108-.168l1.736-2.755h-1.628a.169.169,0,0,1-.163-.13,1.164,1.164,0,0,1-.054-.41,1.1,1.1,0,0,1,.018-.261,1.249,1.249,0,0,1,.036-.168.186.186,0,0,1,.072-.093.16.16,0,0,1,.091-.019h2.822a.262.262,0,0,1,.126.019c.036.019.054.037.09.056l.054.112a.587.587,0,0,1,.018.186v-.079a.606.606,0,0,1-.018.189.368.368,0,0,1-.036.151c-.018.057-.036.095-.054.151a.782.782,0,0,1-.091.171L440.5,42.778h1.809a.157.157,0,0,1,.09.019.145.145,0,0,1,.073.076.4.4,0,0,1,.036.171A1.136,1.136,0,0,1,442.527,43.309Z" transform="translate(-360.031 -32.48)" fill="#fff"/>
        <path id="Pfad_20" data-name="Pfad 20" d="M466.7,40.347a.458.458,0,0,1-.108.342.38.38,0,0,1-.288.108h-2.789a1.706,1.706,0,0,0,.072.54,1.5,1.5,0,0,0,.216.414,1,1,0,0,0,.4.252,1.841,1.841,0,0,0,.576.09,2.784,2.784,0,0,0,.594-.054c.18-.036.324-.072.45-.108a1.933,1.933,0,0,0,.306-.108.546.546,0,0,1,.2-.054c.036,0,.054,0,.072.018a.249.249,0,0,1,.054.072,1.145,1.145,0,0,1,.036.126V42.4a.4.4,0,0,1-.018.144.137.137,0,0,1-.036.09c-.018.018-.036.054-.054.072a.782.782,0,0,1-.18.09,3.067,3.067,0,0,1-.378.126c-.162.036-.324.072-.522.108a3.6,3.6,0,0,1-.63.036,3.246,3.246,0,0,1-1.08-.162,1.987,1.987,0,0,1-.774-.468,2.151,2.151,0,0,1-.468-.792,3.571,3.571,0,0,1-.144-1.116,3.435,3.435,0,0,1,.162-1.1,2.313,2.313,0,0,1,.468-.828,1.969,1.969,0,0,1,.738-.522,2.429,2.429,0,0,1,.99-.18,2.715,2.715,0,0,1,.99.162,1.65,1.65,0,0,1,.666.468,1.628,1.628,0,0,1,.378.72,3.62,3.62,0,0,1,.126.9l-.018.2Zm-1.338-.27a1.292,1.292,0,0,0-.216-.864.824.824,0,0,0-.72-.306,1.087,1.087,0,0,0-.432.09.823.823,0,0,0-.306.252,1.224,1.224,0,0,0-.18.378,1.809,1.809,0,0,0-.072.45Z" transform="translate(-379.056 -31.578)" fill="#fff"/>
        <path id="Pfad_21" data-name="Pfad 21" d="M497.5,43.007a.152.152,0,0,1-.039.1.3.3,0,0,1-.118.079.605.605,0,0,1-.217.039c-.1,0-.2.02-.335.02a1.912,1.912,0,0,1-.355-.02.606.606,0,0,1-.217-.039.181.181,0,0,1-.118-.079c-.02-.039-.039-.059-.039-.1V40.39a2.013,2.013,0,0,0-.054-.522.89.89,0,0,0-.144-.324.674.674,0,0,0-.234-.216.685.685,0,0,0-.342-.072.863.863,0,0,0-.5.18,2.846,2.846,0,0,0-.522.522V43.02a.133.133,0,0,1-.035.087.27.27,0,0,1-.105.07.539.539,0,0,1-.192.035c-.087,0-.175.017-.3.017a1.423,1.423,0,0,1-.3-.017.54.54,0,0,1-.192-.035.161.161,0,0,1-.105-.07A.133.133,0,0,1,493,43.02V38.409a.133.133,0,0,1,.018-.089.386.386,0,0,1,.089-.071.445.445,0,0,1,.177-.035c.071,0,.159-.018.265-.018a1.166,1.166,0,0,1,.266.018.355.355,0,0,1,.159.035.177.177,0,0,1,.089.071.133.133,0,0,1,.018.089v.527a2.586,2.586,0,0,1,.761-.6,1.673,1.673,0,0,1,.814-.195,1.746,1.746,0,0,1,.779.159,1.313,1.313,0,0,1,.513.407,1.716,1.716,0,0,1,.283.6,3.794,3.794,0,0,1,.089.849l.18,2.859Z" transform="translate(-404.315 -31.775)" fill="#fff"/>
        <path id="Pfad_22" data-name="Pfad 22" d="M524.08,37.613a1.706,1.706,0,0,1-.034.354c-.017.074-.034.149-.068.168a.468.468,0,0,1-.136.093,1.314,1.314,0,0,1-.2.075,1.062,1.062,0,0,1-.255.037,1.335,1.335,0,0,1-.273.019,2.07,2.07,0,0,1-.63-.093,1.108,1.108,0,0,1-.442-.316,1.325,1.325,0,0,1-.255-.521,3.2,3.2,0,0,1-.085-.763V34.226h-.535c-.069,0-.1-.037-.138-.13a1.767,1.767,0,0,1-.034-.67.4.4,0,0,1,.034-.168.185.185,0,0,1,.069-.093c.017-.019.052-.019.086-.019h.518V32.085a.148.148,0,0,1,.034-.093.159.159,0,0,1,.1-.074.5.5,0,0,1,.19-.037c.086,0,.173-.019.293-.019a1.549,1.549,0,0,1,.311.019.5.5,0,0,1,.19.037.159.159,0,0,1,.1.074.205.205,0,0,1,.035.093v1.061h.936c.034,0,.068,0,.085.019a.41.41,0,0,1,.068.093.4.4,0,0,1,.034.168c0,.074.017.149.017.261a1.157,1.157,0,0,1-.051.409c-.034.074-.085.13-.136.13h-.953v2.234a1.056,1.056,0,0,0,.119.577.4.4,0,0,0,.392.186.485.485,0,0,0,.17-.019c.051-.019.1-.019.136-.037a.227.227,0,0,1,.1-.037.12.12,0,0,1,.068-.019.059.059,0,0,1,.051.019.1.1,0,0,1,.034.074c.017.037.017.093.034.149A1.167,1.167,0,0,1,524.08,37.613Z" transform="translate(-427.255 -26.627)" fill="#fff"/>
        <path id="Pfad_23" data-name="Pfad 23" d="M546.879,38.738a1.571,1.571,0,0,1-.018.306.454.454,0,0,1-.036.18.4.4,0,0,1-.053.09.132.132,0,0,1-.089.018.158.158,0,0,1-.089-.018c-.036-.018-.071-.018-.107-.036s-.089-.018-.142-.036a.487.487,0,0,0-.16-.018.884.884,0,0,0-.214.036.746.746,0,0,0-.214.144,1.064,1.064,0,0,0-.231.252,3.424,3.424,0,0,0-.267.378v2.854a.133.133,0,0,1-.035.087.27.27,0,0,1-.105.07.539.539,0,0,1-.192.035c-.087,0-.175.017-.3.017a1.423,1.423,0,0,1-.3-.017.54.54,0,0,1-.192-.035.161.161,0,0,1-.105-.07.134.134,0,0,1-.035-.087V38.306a.137.137,0,0,1,.018-.09.391.391,0,0,1,.089-.072.437.437,0,0,1,.177-.036c.071,0,.159-.018.265-.018a1.155,1.155,0,0,1,.266.018.348.348,0,0,1,.159.036.177.177,0,0,1,.089.072.136.136,0,0,1,.018.09v.576a5.215,5.215,0,0,1,.336-.432,3.623,3.623,0,0,1,.3-.27,1.054,1.054,0,0,1,.283-.144.768.768,0,0,1,.283-.036h.133c.053,0,.107.018.16.018.053.018.107.018.142.036a.383.383,0,0,1,.089.054c.018.018.036.036.036.054a.786.786,0,0,1,.018.09c0,.036.018.09.018.162Z" transform="translate(-446.139 -31.66)" fill="#fff"/>
        <path id="Pfad_24" data-name="Pfad 24" d="M565.651,43.194a.109.109,0,0,1-.055.108.226.226,0,0,1-.165.054,1.61,1.61,0,0,1-.329.018,1.718,1.718,0,0,1-.348-.018.407.407,0,0,1-.146-.054.131.131,0,0,1-.037-.108v-.36a1.9,1.9,0,0,1-.659.468,1.974,1.974,0,0,1-.823.162,2.565,2.565,0,0,1-.677-.09,1.661,1.661,0,0,1-.531-.288,1.263,1.263,0,0,1-.348-.468,1.633,1.633,0,0,1,.037-1.349,1.219,1.219,0,0,1,.476-.486,2.855,2.855,0,0,1,.787-.288,6.423,6.423,0,0,1,1.1-.09h.46v-.27a2.215,2.215,0,0,0-.036-.378.649.649,0,0,0-.146-.27.691.691,0,0,0-.274-.162,1.4,1.4,0,0,0-.42-.054,1.919,1.919,0,0,0-.584.072c-.164.054-.329.108-.456.162a2.759,2.759,0,0,0-.329.162.44.44,0,0,1-.219.072.26.26,0,0,1-.109-.036.165.165,0,0,1-.073-.108.425.425,0,0,1-.036-.162.853.853,0,0,1-.018-.216.931.931,0,0,1,.018-.252.468.468,0,0,1,.091-.162.767.767,0,0,1,.256-.162c.128-.054.274-.108.42-.162a4.544,4.544,0,0,1,.529-.126,3.409,3.409,0,0,1,.6-.054,3.474,3.474,0,0,1,.931.108,1.637,1.637,0,0,1,.639.324,1.3,1.3,0,0,1,.365.558,2.719,2.719,0,0,1,.11.81v3.095Zm-1.259-2.069h-.486a2.271,2.271,0,0,0-.54.054.944.944,0,0,0-.36.144.559.559,0,0,0-.2.216.766.766,0,0,0-.072.306.547.547,0,0,0,.18.45.737.737,0,0,0,.5.162,1.017,1.017,0,0,0,.5-.144,2.333,2.333,0,0,0,.468-.414v-.774Z" transform="translate(-460.413 -31.906)" fill="#fff"/>
        <path id="Pfad_25" data-name="Pfad 25" d="M593.259,33.708a.134.134,0,0,1-.035.087.27.27,0,0,1-.105.07.539.539,0,0,1-.192.035c-.087,0-.175.018-.3.018a1.408,1.408,0,0,1-.3-.018.54.54,0,0,1-.192-.035.161.161,0,0,1-.105-.07.134.134,0,0,1-.035-.087V27.113a.134.134,0,0,1,.035-.087.161.161,0,0,1,.105-.07.539.539,0,0,1,.192-.035,1.511,1.511,0,0,1,.3-.017,1.423,1.423,0,0,1,.3.017c.088.018.14.018.192.035a.161.161,0,0,1,.105.07c.017.035.035.052.035.087Z" transform="translate(-485.503 -22.56)" fill="#fff"/>
        <path id="Pfad_26" data-name="Pfad 26" d="M609.714,40.593a.29.29,0,0,1-.042.342.254.254,0,0,1-.288.064h-2.807a1.816,1.816,0,0,0,.072.584,1.5,1.5,0,0,0,.216.414,1,1,0,0,0,.4.252,1.84,1.84,0,0,0,.576.09,2.784,2.784,0,0,0,.594-.054c.18-.036.324-.072.45-.108a1.927,1.927,0,0,0,.306-.108.547.547,0,0,1,.2-.054c.036,0,.054,0,.072.018a.248.248,0,0,1,.054.072.374.374,0,0,1,.025.126v.414a.241.241,0,0,1-.007.144.138.138,0,0,1-.036.09c-.018.018-.036.054-.054.072a.78.78,0,0,1-.18.09,3.078,3.078,0,0,1-.378.126c-.162.036-.324.072-.522.108a3.594,3.594,0,0,1-.63.036,3.246,3.246,0,0,1-1.08-.162,1.987,1.987,0,0,1-.774-.468,2.152,2.152,0,0,1-.468-.792,3.569,3.569,0,0,1-.144-1.116,3.436,3.436,0,0,1,.162-1.1,2.314,2.314,0,0,1,.468-.828,1.969,1.969,0,0,1,.738-.522,2.429,2.429,0,0,1,.99-.18,2.716,2.716,0,0,1,.99.162,1.65,1.65,0,0,1,.666.468,1.628,1.628,0,0,1,.378.72,1.966,1.966,0,0,1,.06.9v.2Zm-1.194-.314a1.293,1.293,0,0,0-.216-.864.824.824,0,0,0-.72-.306,1.087,1.087,0,0,0-.432.09.823.823,0,0,0-.306.252,1.223,1.223,0,0,0-.18.378,1.808,1.808,0,0,0-.072.45Z" transform="translate(-496.38 -31.78)" fill="#fff"/>
        <path id="Pfad_27" data-name="Pfad 27" d="M656.648,34.741a.184.184,0,0,0-.114.09.4.4,0,0,1-.09.072.36.36,0,0,1-.162.036c-.072,0-.162.018-.252.018a1.191,1.191,0,0,1-.27-.018.359.359,0,0,1-.162-.036.18.18,0,0,1-.09-.072c-.018-.018-.119-.09-.119-.09v-.5a3.922,3.922,0,0,1-.654.594,1.709,1.709,0,0,1-.864.216,1.878,1.878,0,0,1-.882-.2,2.134,2.134,0,0,1-.594-.54,2.315,2.315,0,0,1-.324-.81,5.526,5.526,0,0,1-.108-.972,4.09,4.09,0,0,1,.126-1.1,2.513,2.513,0,0,1,.378-.828,1.472,1.472,0,0,1,.63-.522,1.9,1.9,0,0,1,.864-.18,1.547,1.547,0,0,1,.7.162c.216.108.726.468.726.468V27.973a.133.133,0,0,1,.035-.087.16.16,0,0,1,.105-.07.54.54,0,0,1,.192-.035,1.511,1.511,0,0,1,.3-.017,1.423,1.423,0,0,1,.3.017c.07.018.14.018.192.035a.161.161,0,0,1,.105.07c.017.035.035.052.035.087v6.768Zm-1.439-3.077a2.545,2.545,0,0,0-.54-.54.849.849,0,0,0-.54-.18.717.717,0,0,0-.432.126.89.89,0,0,0-.288.342,2.053,2.053,0,0,0-.162.468,2.744,2.744,0,0,0-.054.54,2.791,2.791,0,0,0,.054.558,3.12,3.12,0,0,0,.144.486.891.891,0,0,0,.288.342.7.7,0,0,0,.45.126,1.062,1.062,0,0,0,.252-.036.826.826,0,0,0,.252-.126,1.044,1.044,0,0,0,.27-.234c.09-.09.2-.216.306-.342Z" transform="translate(-534.678 -23.265)" fill="#fff"/>
        <path id="Pfad_28" data-name="Pfad 28" d="M687.714,41.793a.29.29,0,0,1-.042.342.206.206,0,0,1-.288.028h-2.807a1.913,1.913,0,0,0,.072.62,1.5,1.5,0,0,0,.216.414,1,1,0,0,0,.4.252,1.842,1.842,0,0,0,.576.09,2.785,2.785,0,0,0,.594-.054c.18-.036.324-.072.45-.108a1.924,1.924,0,0,0,.306-.108.546.546,0,0,1,.2-.054c.036,0,.054,0,.072.018a.248.248,0,0,1,.054.072.372.372,0,0,1,.024.126v.414a.241.241,0,0,1-.006.144.138.138,0,0,1-.036.09c-.018.018-.036.054-.054.072a.784.784,0,0,1-.18.09c-.108.036-.234.09-.378.126-.162.036-.324.072-.522.108a3.593,3.593,0,0,1-.63.036,3.245,3.245,0,0,1-1.079-.162,1.986,1.986,0,0,1-.774-.468,1.931,1.931,0,0,1-.468-.792,3.571,3.571,0,0,1-.144-1.116,3.434,3.434,0,0,1,.162-1.1,2.316,2.316,0,0,1,.468-.828,1.969,1.969,0,0,1,.738-.522,2.429,2.429,0,0,1,.99-.18,2.715,2.715,0,0,1,.99.162,1.649,1.649,0,0,1,.666.468,1.626,1.626,0,0,1,.378.72,1.734,1.734,0,0,1,.06.9v.2Zm-1.194-.35a1.292,1.292,0,0,0-.216-.864.824.824,0,0,0-.72-.306,1.087,1.087,0,0,0-.432.09.823.823,0,0,0-.306.252.921.921,0,0,0-.18.378,1.808,1.808,0,0,0-.072.45Z" transform="translate(-560.347 -32.764)" fill="#fff"/>
        <path id="Pfad_29" data-name="Pfad 29" d="M716.69,43.09a1.658,1.658,0,0,1-.144.684,1.383,1.383,0,0,1-.414.5,1.866,1.866,0,0,1-.63.306,2.808,2.808,0,0,1-.792.108,3.83,3.83,0,0,1-.486-.036,2.365,2.365,0,0,1-.414-.09.978.978,0,0,1-.306-.126c-.072-.054-.144-.072-.18-.108a.349.349,0,0,1-.09-.162,1.526,1.526,0,0,1-.036-.342.811.811,0,0,1,.018-.234c.018-.054.018-.108.036-.144a.247.247,0,0,1,.054-.072.108.108,0,0,1,.072-.018.293.293,0,0,1,.162.072c.072.036.162.09.27.144a1.843,1.843,0,0,0,.378.144,1.994,1.994,0,0,0,.5.072,1.554,1.554,0,0,0,.3-.034.582.582,0,0,0,.229-.1.418.418,0,0,0,.16-.174.5.5,0,0,0,.054-.234.442.442,0,0,0-.09-.27.945.945,0,0,0-.252-.2,3.5,3.5,0,0,0-.36-.162c-.144-.054-.27-.108-.414-.162a4.33,4.33,0,0,1-.414-.2,1.712,1.712,0,0,1-.36-.27,1.245,1.245,0,0,1-.252-.4,1.347,1.347,0,0,1-.09-.558,1.434,1.434,0,0,1,.126-.612,1.358,1.358,0,0,1,.378-.468,1.847,1.847,0,0,1,.594-.306,2.593,2.593,0,0,1,.774-.108,2.954,2.954,0,0,1,.414.036c.144.018.252.054.36.072a.938.938,0,0,1,.27.108c.072.036.126.072.162.09s.054.054.072.072.018.054.036.09c0,.036.018.072.018.126v.432c0,.054-.018.108-.018.144a.249.249,0,0,1-.054.072c-.018.018-.036.018-.072.018a.36.36,0,0,1-.144-.054,1.757,1.757,0,0,0-.252-.108c-.09-.036-.216-.072-.342-.108a1.543,1.543,0,0,0-.738-.018.41.41,0,0,0-.216.108.391.391,0,0,0-.126.162.356.356,0,0,0-.036.2.442.442,0,0,0,.09.27.947.947,0,0,0,.252.2c.108.054.234.108.36.162.144.054.27.108.414.162a4.316,4.316,0,0,1,.414.2,1.345,1.345,0,0,1,.36.27,1,1,0,0,1,.252.4C716.672,42.713,716.69,42.893,716.69,43.09Z" transform="translate(-584.896 -32.928)" fill="#fff"/>
        <path id="Pfad_30" data-name="Pfad 30" d="M756.675,29.652a1.2,1.2,0,0,1-.017.265.619.619,0,0,1-.034.189.436.436,0,0,1-.051.095.1.1,0,0,1-.068.019.682.682,0,0,1-.2-.095c-.1-.057-.221-.133-.375-.208a2.881,2.881,0,0,0-.562-.208,2.926,2.926,0,0,0-.749-.095,2.009,2.009,0,0,0-.834.17,1.852,1.852,0,0,0-.63.492,2.471,2.471,0,0,0-.408.777,3.157,3.157,0,0,0-.136,1,3.956,3.956,0,0,0,.136,1.06,2.471,2.471,0,0,0,.408.777,1.738,1.738,0,0,0,.613.474,1.847,1.847,0,0,0,.8.151,1.638,1.638,0,0,0,.425-.057,1.473,1.473,0,0,0,.391-.17V32.663H754.19c-.051,0-.1-.038-.136-.114a1.194,1.194,0,0,1-.051-.417,1.027,1.027,0,0,1,.017-.246.413.413,0,0,1,.034-.17.417.417,0,0,1,.051-.095.123.123,0,0,1,.085-.038h2.128a.292.292,0,0,1,.136.038.456.456,0,0,1,.1.095.4.4,0,0,1,.068.151.645.645,0,0,1,.017.189v2.784a.694.694,0,0,1-.051.284.362.362,0,0,1-.2.189c-.1.038-.238.095-.392.151a4.48,4.48,0,0,1-.476.133,4.759,4.759,0,0,1-.511.076,4.614,4.614,0,0,1-.511.019,3.323,3.323,0,0,1-1.345-.246,2.859,2.859,0,0,1-1-.7,3.018,3.018,0,0,1-.63-1.117,4.959,4.959,0,0,1-.221-1.5,4.9,4.9,0,0,1,.238-1.553,3.334,3.334,0,0,1,.664-1.174,2.848,2.848,0,0,1,1.038-.739,3.436,3.436,0,0,1,1.345-.246,4.5,4.5,0,0,1,.749.057,3.321,3.321,0,0,1,.578.151,3.127,3.127,0,0,1,.409.189c.1.076.187.132.238.17a.56.56,0,0,1,.1.208A3.876,3.876,0,0,1,756.675,29.652Z" transform="translate(-616.139 -23.805)" fill="#fff"/>
        <path id="Pfad_31" data-name="Pfad 31" d="M793.786,34.66a2.447,2.447,0,0,1-.09.648,1.908,1.908,0,0,1-.27.5,1.675,1.675,0,0,1-.414.378,2.869,2.869,0,0,1-.522.27,2.332,2.332,0,0,1-.612.144,4.5,4.5,0,0,1-.72.054H789.4a.409.409,0,0,1-.288-.108.44.44,0,0,1-.108-.324V30.432a.44.44,0,0,1,.108-.324A.409.409,0,0,1,789.4,30h1.673a4.324,4.324,0,0,1,1.044.108,2.411,2.411,0,0,1,.72.306,1.551,1.551,0,0,1,.45.522,1.67,1.67,0,0,1,.162.756,1.811,1.811,0,0,1-.054.45,1.578,1.578,0,0,1-.18.4,1.537,1.537,0,0,1-.288.306,1.4,1.4,0,0,1-.4.216,1.8,1.8,0,0,1,.522.18,1.5,1.5,0,0,1,.414.324,1.713,1.713,0,0,1,.288.468C793.75,34.228,793.786,34.444,793.786,34.66Zm-1.727-2.7a1.2,1.2,0,0,0-.056-.375.741.741,0,0,0-.187-.281.866.866,0,0,0-.319-.169,1.944,1.944,0,0,0-.525-.056h-.712v1.8h.787a1.153,1.153,0,0,0,.487-.075.857.857,0,0,0,.3-.206,1.178,1.178,0,0,0,.187-.3A1.677,1.677,0,0,0,792.058,31.96Zm.387,2.855a1.044,1.044,0,0,0-.075-.434.812.812,0,0,0-.245-.32,1.319,1.319,0,0,0-.4-.207,1.933,1.933,0,0,0-.622-.075h-.848v1.979h1.018a1.848,1.848,0,0,0,.49-.056.94.94,0,0,0,.358-.189.91.91,0,0,0,.226-.3A.878.878,0,0,0,792.446,34.815Z" transform="translate(-647.058 -25.1)" fill="#fff"/>
        <path id="Pfad_32" data-name="Pfad 32" d="M821.168,37.059a.359.359,0,0,1-.072.144.322.322,0,0,1-.126.09.833.833,0,0,1-.252.036h-.774a1.107,1.107,0,0,1-.252-.018,1.144,1.144,0,0,1-.162-.036l-.108-.054c-.036-.018-.054-.054-.072-.072a.193.193,0,0,1-.036-.108l-1.979-5.9a1.316,1.316,0,0,1-.072-.288c0-.072,0-.126.054-.162a.5.5,0,0,1,.216-.072c.108,0,.252-.018.432-.018a2.189,2.189,0,0,1,.378.018,1.345,1.345,0,0,1,.2.036.166.166,0,0,1,.108.072.878.878,0,0,1,.054.126L820.323,36h0l1.583-5.11a1.264,1.264,0,0,1,.054-.144.185.185,0,0,1,.108-.09.671.671,0,0,1,.216-.036c.09,0,.216-.018.378-.018a1.866,1.866,0,0,1,.36.018.339.339,0,0,1,.18.072c.036.036.036.09.036.162-.018.072-.036.162-.072.288Z" transform="translate(-670.237 -25.592)" fill="#fff"/>
        <g id="Gruppe_10" data-name="Gruppe 10" transform="translate(2.942 2.489)">
          <g id="Gruppe_9" data-name="Gruppe 9" transform="translate(0)">
            <path id="Pfad_9" data-name="Pfad 9" d="M17.791,24.011c-.527,1.336-1.143,3.041-1.371,3.8a.391.391,0,0,1-.229.07.508.508,0,0,1-.246-.07,18.516,18.516,0,0,0-.615-1.916l-2.321-6.171c-.369-.985-.492-1.178-1.02-1.3l-.316-.07c-.088-.105-.088-.369.035-.4.51.035,1.09.035,1.6.035.6,0,1.037-.018,1.74-.035a.287.287,0,0,1,.018.422l-.334.088c-.3.07-.4.141-.4.264a12.062,12.062,0,0,0,.65,1.951l.949,2.6c.246.65.6,1.53.721,1.864.721-1.846,1.512-3.868,2.215-5.854.211-.58.176-.7-.229-.809l-.387-.105c-.088-.123-.088-.352.035-.422.545.035.985.035,1.424.035.475,0,.914-.018,1.283-.035.105.07.088.3.035.422l-.334.07a1.113,1.113,0,0,0-.826.6c-.369.7-.756,1.688-1.354,3.165Z" transform="translate(-11.611 -17.469)" fill="#fff"/>
            <path id="Pfad_10" data-name="Pfad 10" d="M71.108,15.66c.886,0,1.293-.035,1.506-.053a.2.2,0,0,1,.124.23A34.465,34.465,0,0,0,70.7,19.026l-2.161,3.6a13.837,13.837,0,0,0-1.063,1.931c0,.159.195.213.425.213.266.018.567.035,1.541.035a4.534,4.534,0,0,0,2.3-.336,3.06,3.06,0,0,0,.975-1.559c.124-.088.39-.035.425.124a7.735,7.735,0,0,1-.638,2.409c-.354-.018-.744-.035-1.152-.035-.408-.018-.833-.018-1.329-.018H66.555c-.726,0-1.152.018-1.4.036a.192.192,0,0,1-.089-.213c.195-.283.939-1.311,1.524-2.286l2.959-4.89a10.65,10.65,0,0,0,.921-1.683c0-.106-.195-.106-.461-.106H68.4c-1.01,0-1.648.124-1.967.5a3.828,3.828,0,0,0-.62,1.116.293.293,0,0,1-.425-.106c.195-.85.425-1.665.567-2.48a.186.186,0,0,1,.23,0c.089.337.354.372,1.4.372C67.583,15.66,71.108,15.66,71.108,15.66Z" transform="translate(-55.665 -15.23)" fill="#fff"/>
            <path id="Pfad_11" data-name="Pfad 11" d="M120.973,24.586c0,.521.072.917.324,1.043.036.054.036.18-.018.216a2.115,2.115,0,0,0-.647.126,11.625,11.625,0,0,1-2.625.4,5.386,5.386,0,0,1-4.171-1.654,5.281,5.281,0,0,1-1.187-3.434,5.413,5.413,0,0,1,1.241-3.524,5.462,5.462,0,0,1,4.315-1.762,10.057,10.057,0,0,1,1.8.216,4.957,4.957,0,0,0,.863.126c.018.45.108,1.2.18,2.373a.283.283,0,0,1-.431.036,2.485,2.485,0,0,0-2.607-2.176c-2.373,0-3.524,1.906-3.524,4.441a5.724,5.724,0,0,0,.971,3.434,3.333,3.333,0,0,0,2.607,1.277c.647,0,1.043-.126,1.2-.342a1.885,1.885,0,0,0,.126-.935V23.9c0-1.061-.018-1.151-.917-1.313l-.485-.09a.349.349,0,0,1,.018-.431c.521.036,1.169.036,2.1.036.611,0,1.061-.018,1.654-.036a.294.294,0,0,1,.036.431l-.252.036c-.5.072-.575.216-.575,1.115v.935Z" transform="translate(-94.885 -15.857)" fill="#fff"/>
          </g>
          <rect id="Rechteck_3" data-name="Rechteck 3" width="1.952" height="9.76" transform="translate(29.842 0.576)" fill="#fff"/>
        </g>
        <g id="Rechteck_4" data-name="Rechteck 4" transform="translate(0 0)" fill="none" stroke="#fff" stroke-width="1">
          <rect width="39" height="15" stroke="none"/>
          <rect x="0.5" y="0.5" width="38" height="14" fill="none"/>
        </g>
      </g>
    </g>
  </g>
</svg>
